<?xml version="1.0" standalone="no"?>
<!DOCTYPE svg PUBLIC "-//W3C//DTD SVG 1.1//EN" "http://www.w3.org/Graphics/SVG/1.1/DTD/svg11.dtd" >
<svg xmlns="http://www.w3.org/2000/svg">
<metadata>Generated by IcoMoon</metadata>
<defs>
<font id="icomoon" horiz-adv-x="1024">
<font-face units-per-em="1024" ascent="960" descent="-64" />
<missing-glyph horiz-adv-x="1024" />
<glyph unicode="&#x20;" horiz-adv-x="512" d="" />
<glyph unicode="&#xe900;" glyph-name="acupuncture" d="M66.765 481.158c-36.813 0-66.765-29.798-66.765-66.355 0-36.608 30.157-66.406 67.021-66.406v-232.242c0-18.33 14.694-33.178 33.126-33.178 18.483 0 33.434 14.848 33.434 33.178v232.242h1.843c4.301 25.344 8.55 29.952 60.314 132.762h-128.973zM957.182 481.158h-489.47c0-59.802-1.638-56.269-40.090-132.762h463.001v-232.242c0-18.33 14.746-33.178 33.178-33.178 18.483 0 33.382 14.848 33.382 33.178v232.293c36.864 0 66.816 29.747 66.816 66.355 0 36.557-29.952 66.355-66.816 66.355zM100.147 746.629c-55.194 0-100.147-44.646-100.147-99.533 0-54.938 44.954-99.584 100.147-99.584 55.245 0 100.198 44.646 100.198 99.584 0 54.886-44.954 99.533-100.198 99.533zM957.182 680.273h-53.811l29.85 89.037c5.837 17.408-3.635 36.198-21.094 41.984-17.459 5.837-36.403-3.584-42.24-20.992l-36.915-110.029h-40.909l-36.915 110.029c-5.837 17.408-24.73 26.829-42.24 20.992-17.51-5.786-26.931-24.576-21.094-41.984l29.85-89.037h-120.627v99.533c0 18.33-14.95 33.178-33.382 33.178s-33.178-14.848-33.178-33.178v-99.533h-76.339l-36.915 110.029c-5.786 17.408-24.73 26.778-42.189 20.992-17.51-5.786-26.982-24.576-21.146-41.984l29.901-89.037h-53.862c-36.659 0-66.458-29.542-66.714-65.894h-0.051c0-7.475 0-101.376 0-139.674l-59.75-118.733c-16.486-32.717-3.072-72.653 29.85-89.037 32.307-16.026 72.755-3.891 89.6 29.696l66.816 132.71c4.608 9.165 7.014 19.405 7.014 29.696v88.474h556.491c36.864 0 66.816 29.798 66.816 66.355 0 36.608-29.952 66.406-66.816 66.406z" />
<glyph unicode="&#xe901;" glyph-name="arrow-down" d="M808.453 367.094l-592.83 592.906-215.623-215.623 592.906-592.83 215.547 215.547zM1024 906.114v-970.114h-323.32v970.114h323.32zM53.886 259.32h970.114v-323.32h-970.114v323.32z" />
<glyph unicode="&#xe902;" glyph-name="arrow-left1" d="M369.777 561.778h625.778v-227.556h-625.778v227.556zM540.444 960l-512-512 170.667-170.667 512 512-170.667 170.667zM711.111 106.667l-512 512-170.667-170.667 512-512 170.667 170.667z" />
<glyph unicode="&#xe903;" glyph-name="arrow-right" d="M28.444 561.778h625.778v-227.556h-625.778v227.556zM483.556 960l512-512-170.667-170.667-512 512 170.667 170.667zM312.889 106.667l512 512 170.667-170.667-512-512-170.667 170.667z" />
<glyph unicode="&#xe904;" glyph-name="assessment" d="M656.696 826.433h-50.676c-13.83 38.784-50.546 66.784-94.020 66.784h-39.108c-13.784 38.87-50.912 66.782-94.458 66.782-43.544 0-80.674-27.912-94.458-66.782h-39.108c-43.474 0-80.19-28-94.020-66.782h-50.674c-55.238-0.002-100.174-44.936-100.174-100.176v-690.085c0-55.238 44.936-100.174 100.174-100.174h556.521c55.238 0 100.174 44.936 100.174 100.174v690.085c0 55.238-44.936 100.174-100.174 100.174zM211.479 793.043c0 18.412 14.98 33.392 33.392 33.392h66.782c18.434 0 33.392 14.946 33.392 33.392 0 18.412 14.98 33.392 33.392 33.392s33.392-14.98 33.392-33.392c0-18.446 14.958-33.392 33.392-33.392h66.78c18.412 0 33.392-14.98 33.392-33.392v-33.392h-333.913v33.392zM143.349 504.998c13.042 13.042 34.174 13.042 47.218 0l43.172-43.172 109.958 109.958c13.042 13.042 34.174 13.042 47.218 0 13.042-13.032 13.042-34.184 0-47.218l-133.566-133.566c-13.042-13.042-34.174-13.042-47.218 0l-66.782 66.782c-13.044 13.034-13.044 34.186 0 47.216zM257.348 123.871c-13.042-13.042-34.174-13.042-47.218 0l-66.782 66.782c-13.044 13.032-13.044 34.184 0 47.216 13.042 13.042 34.174 13.042 47.218 0l43.172-43.172 109.958 109.958c13.042 13.042 34.174 13.042 47.218 0 13.042-13.032 13.042-34.184 0-47.218l-133.566-133.566zM589.914 114.087h-155.826c-18.434 0-33.392 14.946-33.392 33.392s14.958 33.392 33.392 33.392h155.826c18.434 0 33.392-14.946 33.392-33.392s-14.958-33.392-33.392-33.392zM589.914 247.652h-89.044c-18.434 0-33.392 14.946-33.392 33.392s14.958 33.392 33.392 33.392h89.044c18.434 0 33.392-14.946 33.392-33.392-0.002-18.446-14.958-33.392-33.392-33.392zM589.914 381.218h-155.826c-18.434 0-33.392 14.946-33.392 33.392s14.958 33.392 33.392 33.392h155.826c18.434 0 33.392-14.946 33.392-33.392s-14.958-33.392-33.392-33.392zM589.914 514.782h-89.044c-18.434 0-33.392 14.946-33.392 33.392s14.958 33.392 33.392 33.392h89.044c18.434 0 33.392-14.946 33.392-33.392-0.002-18.446-14.958-33.392-33.392-33.392zM823.651 136.349v-17.63c0-15.456 3.652-30.944 10.564-44.794l59.74-119.468c12.284-24.592 47.478-24.542 59.74 0l59.74 119.478c6.912 13.838 10.566 29.326 10.566 44.782v17.632h-200.35zM923.825 804.173c-55.238 0-100.174-44.936-100.174-100.174v-500.869h200.348v500.869c0 55.238-44.936 100.174-100.174 100.174zM957.217 537.044h-66.782v166.956c0 18.412 14.98 33.392 33.392 33.392s33.392-14.98 33.392-33.392v-166.956h-0.002z" />
<glyph unicode="&#xe905;" glyph-name="bus" d="M512.003 960c-244.308 0-442.184-26.948-442.184-215.578v-538.948c0-47.697 21.556-90.005 55.272-119.646v-95.934c0-29.641 24.873-53.894 55.272-53.894h55.275c30.676 0 55.272 24.253 55.272 53.894v53.894h442.184v-53.894c0-29.641 24.596-53.894 55.272-53.894h55.272c30.399 0 55.272 24.253 55.272 53.894v95.932c33.716 29.641 55.272 71.95 55.272 119.646v538.95c0 188.63-197.874 215.578-442.179 215.578zM263.274 151.578c-45.877 0-82.909 36.109-82.909 80.842s37.032 80.842 82.909 80.842c45.877 0 82.909-36.109 82.909-80.842s-37.035-80.842-82.909-80.842zM760.731 151.578c-45.877 0-82.909 36.109-82.909 80.842s37.032 80.842 82.909 80.842c45.877 0 82.909-36.109 82.909-80.842s-37.035-80.842-82.909-80.842zM843.64 474.947h-663.276v269.475h663.276v-269.475z" />
<glyph unicode="&#xe906;" glyph-name="google-review-star" d="M996.826 583.565l-314.794 44.717-141.098 279.493c-10.539 20.871-47.36 20.871-57.899 0l-141.056-279.493-314.794-44.717c-25.856-3.69-36.181-32.933-18.048-50.193l228.693-217.992-54.059-308.18c-4.309-24.481 23.808-42.852 47.061-30.83l281.173 144.508 281.173-144.547c23.040-11.903 51.413 6.11 47.061 30.83l-54.059 308.18 228.693 217.992c18.133 17.3 7.765 46.542-18.048 50.233v0z" />
<glyph unicode="&#xe907;" glyph-name="group-square" d="M418.909 960h186.182v-186.182h-186.182v186.182zM0 960h186.182v-186.182h-186.182v186.182zM418.909 541.091h186.182v-186.182h-186.182v186.182zM0 541.091h186.182v-186.182h-186.182v186.182zM418.909 122.182h186.182v-186.182h-186.182v186.182zM837.818 960h186.182v-186.182h-186.182v186.182zM837.818 541.091h186.182v-186.182h-186.182v186.182zM837.818 122.182h186.182v-186.182h-186.182v186.182zM0 122.182h186.182v-186.182h-186.182v186.182z" />
<glyph unicode="&#xe908;" glyph-name="headaches" d="M512.001 559.309c-56.32 0-102.144-44.954-102.144-100.198 0-55.194 45.824-100.147 102.144-100.147s102.144 44.954 102.144 100.147c0 55.245-45.824 100.198-102.144 100.198zM512.001 960c-56.32 0-102.144-44.954-102.144-100.198 0-55.194 45.824-100.147 102.144-100.147s102.144 44.954 102.144 100.147c0 55.245-45.824 100.198-102.144 100.198zM1021.543 238.694c-6.298 31.693-36.557 53.504-69.478 53.504h-201.677v300.493c0 55.347-45.722 100.198-102.144 100.198h-272.486c-56.422 0-102.144-44.851-102.144-100.198v-300.493h-204.339c-41.984 0-75.264-37.478-66.816-80.128 6.298-31.693 36.557-53.453 69.478-53.453h88.166c0-73.677 61.082-133.581 136.192-133.581 29.696 0 57.088 9.472 79.462 25.293v-80.947c0-18.432 15.258-33.382 34.099-33.382h204.339c18.79 0 34.048 14.95 34.048 33.382v80.947c22.374-15.821 49.766-25.293 79.462-25.293 75.11 0 136.192 59.904 136.192 133.581h90.829c41.984 0 75.264 37.427 66.816 80.077zM296.295 91.802c-37.53 0-68.096 30.208-68.096 67.021h136.243c0-36.813-30.566-67.021-68.147-67.021zM341.71 292.198v300.493c0 18.432 15.258 33.382 34.048 33.382h272.486c18.79 0 34.048-14.95 34.048-33.382v-300.493h-340.582zM727.707 91.802c-37.581 0-68.147 30.003-68.147 66.816h136.243c0-36.813-30.566-66.816-68.096-66.816z" />
<glyph unicode="&#xe909;" glyph-name="map" d="M512 960c203.279 0 368.64-160.768 368.64-358.4 0-268.8-368.64-665.6-368.64-665.6s-368.64 396.8-368.64 665.6c0 197.632 165.361 358.4 368.64 358.4zM512 796.16c-113.108 0-204.8-91.692-204.8-204.8s91.692-204.8 204.8-204.8c113.108 0 204.8 91.692 204.8 204.8s-91.692 204.8-204.8 204.8z" />
<glyph unicode="&#xe90a;" glyph-name="message" d="M80.842 777.143h862.316c38.811-0.104 72.116-27.393 79.495-65.13l-510.653-281.896-510.653 281.896c7.379 37.737 40.684 65.026 79.495 65.13zM943.158 118.857h-862.316c-44.589 0.136-80.716 35.912-80.842 80.083v452.74l498.8-275.483c4.042-2.2 8.579-3.399 13.2-3.472 4.642-0.052 9.2 1.147 13.2 3.472l498.8 275.483v-452.74c-0.032-44.212-36.211-80.041-80.842-80.083z" />
<glyph unicode="&#xe90b;" glyph-name="path-right" d="M1013.15 585.728l-292.575 262.142c-7.239 6.486-15.808 9.73-25.713 9.73s-18.479-3.244-25.713-9.73c-7.239-6.49-10.864-14.171-10.864-23.044v-131.071h-127.999c-271.63 0-438.287-68.78-500.010-206.338-20.185-45.733-30.276-102.572-30.276-170.497 0-56.658 24.192-133.626 72.571-230.91 1.141-2.394 3.134-6.481 5.996-12.282 2.86-5.798 5.428-10.918 7.714-15.36 2.294-4.431 4.771-8.186 7.435-11.255 4.567-5.805 9.903-8.714 16-8.714 5.714 0 10.191 1.705 13.432 5.118 3.232 3.411 4.852 7.683 4.852 12.79 0 3.081-0.476 7.596-1.431 13.574-0.953 5.977-1.431 9.978-1.431 12.029-1.907 23.202-2.86 44.21-2.86 62.97 0 34.473 3.338 65.364 9.999 92.669 6.671 27.31 15.908 50.942 27.72 70.913 11.811 19.977 27.044 37.202 45.715 51.71 18.664 14.508 38.756 26.365 60.28 35.583 21.528 9.219 46.86 16.473 76.003 21.762 29.141 5.29 58.473 8.961 88 11.011s62.956 3.068 100.291 3.068h127.999v-131.075c0-8.873 3.617-16.556 10.85-23.039 7.245-6.479 15.814-9.727 25.713-9.727 9.903 0 18.477 3.248 25.727 9.727l292.569 262.151c7.239 6.486 10.856 14.164 10.856 23.039 0 8.873-3.617 16.556-10.85 23.055z" />
<glyph unicode="&#xe90c;" glyph-name="pilates" d="M923.854 670.591c-55.245 0-100.198-44.954-100.198-100.198s44.954-100.147 100.198-100.147c55.194 0 100.147 44.902 100.147 100.147s-44.954 100.198-100.147 100.198zM543.387 274.968l-30.208 122.214c-48.282 4.71-96.563 12.902-143.821 24.32l23.706-95.949h-114.79c-36.813 0-66.765-29.952-66.765-66.816 0-36.813 29.952-66.765 66.765-66.765h200.346c43.366 0 75.315 40.806 64.768 82.995zM832.769 274.968l-66.56 266.189c-7.066 30.31-33.843 51.507-65.024 51.507h-93.133c-108.288 0-237.056 23.296-343.808 64.307l0.205 0.461c7.27 16.947-0.614 36.557-17.562 43.827-16.896 7.27-36.557-0.563-43.827-17.51-19.61 9.779-38.042 20.173-54.733 31.283-31.027 20.685-72.294 11.93-92.621-18.534-20.378-30.618-12.134-72.141 18.534-92.621 23.142-15.411 48.845-29.696 76.186-42.906l-147.712-344.73c-7.27-16.947 0.563-36.557 17.562-43.827 16.794-7.219 36.506 0.461 43.827 17.562l147.61 344.422c123.546-48.026 270.694-75.315 396.339-75.315h41.011l54.118-216.525c9.011-35.994 45.414-57.549 80.998-48.589 35.738 8.909 57.498 45.261 48.589 80.998z" />
<glyph unicode="&#xe90d;" glyph-name="play-button" d="M512 960c282.234 0 511.030-229.23 511.030-512s-228.796-512-511.030-512c-282.234 0-511.030 229.23-511.030 512s228.796 512 511.030 512zM416.608 625.091v-354.183l285.776 177.091-285.776 177.091z" />
<glyph unicode="&#xe90e;" glyph-name="rehab" d="M512 813.005c-73.677 0-133.581-59.904-133.581-133.53 0-73.677 59.904-133.581 133.581-133.581s133.581 59.904 133.581 133.581c0 73.626-59.904 133.53-133.581 133.53zM1023.949 615.987c-1.792 36.352-32.41 63.232-66.714 63.232h-244.89c0-23.398-4.25-45.619-11.674-66.56h142.080l-219.443-133.581h-222.618l-219.392 133.581h142.029c-7.424 20.941-11.674 43.162-11.674 66.56h-244.89c-34.765 0-64.768-27.085-66.662-62.976-0.051 0.051-0.051 0.051-0.102 0.102v-241.869c0-18.432 14.95-33.382 33.382-33.382s33.382 14.95 33.382 33.382v155.75l311.654-201.37v-217.037c0-18.483 14.95-33.434 33.434-33.434h200.346c18.432 0 33.382 14.95 33.382 33.434v217.037l311.654 201.421v-155.802c0-18.432 14.95-33.382 33.382-33.382s33.382 14.95 33.382 33.382v241.51c0 0-0.051 0-0.051 0z" />
<glyph unicode="&#xe90f;" glyph-name="runners-club" d="M805.377 524.698c-12.902 50.534-32.461 99.174-58.163 144.64-9.267 16.333-29.645 21.862-45.619 12.493s-21.453-30.208-12.237-46.49c22.733-40.192 39.987-83.2 51.405-127.795 4.608-18.022 22.579-29.133 40.704-24.371 17.869 4.71 28.57 23.347 23.91 41.523zM990.619 5.274h-33.382v306.483c0 56.371-44.954 102.195-100.198 102.195h-200.602c-4.045 82.381-23.45 221.133-158.157 325.478-23.45 18.227-75.776 30.31-105.779-30.976-3.994-8.141-55.398-115.507-61.645-121.856l-119.603-121.958c-13.824-14.080-20.787-32.512-21.094-50.688h-74.906l16.333 150.221 20.429-10.394c16.691-8.499 36.608-1.485 44.8 15.206 8.243 16.845 1.587 37.274-14.899 45.722l-133.581 68.096c-16.486 8.346-36.557 1.587-44.8-15.258-8.243-16.794-1.587-37.274 14.95-45.67l50.534-25.754c-2.509-6.81-60.672-546.253-61.44-553.472-6.093-56.269 37.12-105.472 92.621-105.472h890.418c18.432 0 33.382 15.206 33.382 34.048 0 18.79-14.95 34.048-33.382 34.048zM446.465 514.509c14.49 24.218 50.074 20.736 59.802-5.888 8.243-22.63 13.414-45.875 15.565-69.376-7.117-8.141-13.619-16.794-20.224-25.293h-150.886c40.192 40.858 91.597 93.645 95.744 100.557zM890.42 5.274h-790.22c-15.718 0-28.006 13.875-26.214 29.85l33.843 310.938c51.046 0 305.971 0 349.082 0-43.622-79.002-67.328-168.704-67.328-261.018 0-54.221 30.925-79.77 66.867-79.77 74.957 0 68.352 94.822 66.918 84.378 0.512 49.101 9.677 96.768 27.187 141.773 24.934-75.469 66.406-144.742 122.675-203.11 25.498-26.419 67.738-30.464 94.771-5.683 28.16 25.856 29.798 69.274 4.352 97.178-45.517 49.818-98.253 127.181-111.923 226.048h196.608c18.432 0 33.382-15.309 33.382-34.099v-306.483zM289.383 958.822c-55.245 0-100.147-45.824-100.147-102.144s44.902-102.195 100.147-102.195c55.245 0 100.198 45.875 100.198 102.195s-44.954 102.144-100.198 102.144z" />
<glyph unicode="&#xe910;" glyph-name="searchblack" d="M6.251 2.582l297.465 297.464c-56.42 69.654-90.383 158.206-90.383 254.618 0 223.5 181.834 405.334 405.334 405.334s405.333-181.834 405.333-405.334c0-223.5-181.834-405.334-405.334-405.334-96.413 0-184.965 33.964-254.619 90.383l-297.465-297.464c-8.334-8.33-21.838-8.33-30.172 0l-30.162 30.164c-8.33 8.332-8.33 21.84 0.002 30.17zM621.715 228.571c181.5 0 329.143 147.643 329.143 329.143s-147.643 329.143-329.143 329.143c-181.5 0-329.143-147.643-329.143-329.143s147.643-329.143 329.143-329.143z" />
<glyph unicode="&#xe911;" glyph-name="search" d="M6.25 2.582l297.464 297.464c-56.42 69.654-90.382 158.207-90.382 254.619 0 223.5 181.834 405.334 405.335 405.334s405.333-181.834 405.333-405.334c0-223.5-181.834-405.334-405.335-405.334-96.412 0-184.964 33.964-254.619 90.382l-297.464-297.464c-8.334-8.33-21.839-8.33-30.172 0l-30.162 30.164c-8.33 8.332-8.33 21.84 0.002 30.17zM618.665 234.666c176.459 0 320.001 143.542 320.001 320.001s-143.542 320.001-320.001 320.001c-176.459 0-320.001-143.542-320.001-320.001s143.542-320.001 320.001-320.001z" />
<glyph unicode="&#xe912;" glyph-name="search-light" d="M69.468 58.259l260.282 260.282c-49.368 60.947-79.084 138.431-79.084 222.791 0 195.563 159.105 354.668 354.668 354.668s354.666-159.105 354.666-354.668c0-195.563-159.105-354.668-354.668-354.668-84.361 0-161.844 29.719-222.791 79.084l-260.282-260.282c-7.292-7.289-19.108-7.289-26.401 0l-26.392 26.394c-7.289 7.291-7.289 19.11 0.002 26.399zM605.332 261.331c154.401 0 280.001 125.6 280.001 280.001s-125.6 280.001-280.001 280.001c-154.401 0-280.001-125.6-280.001-280.001s125.6-280.001 280.001-280.001z" />
<glyph unicode="&#xe913;" glyph-name="short-arrow" d="M28.444 561.778h625.778v-227.556h-625.778v227.556zM483.556 960l512-512-170.667-170.667-512 512zM312.889 106.667l512 512 170.667-170.667-512-512z" />
<glyph unicode="&#xe914;" glyph-name="short-arrow-down" d="M625.776 931.556v-625.778h-227.556v625.778h227.556zM1024 476.445l-512.001-512.001-170.666 170.666 512.001 512.001zM170.666 647.113l512.001-512.001-170.666-170.666-512.001 512.001z" />
<glyph unicode="&#xe915;" glyph-name="sports-massage-1" d="M100.172 498.088c-55.236 0-100.172-44.936-100.172-100.174s44.936-100.172 100.172-100.172c55.238 0 100.172 44.936 100.172 100.172s-44.934 100.174-100.172 100.174zM467.475 943.301c-55.238 0-100.172-44.936-100.172-100.172 0-55.238 44.936-100.172 100.172-100.172 55.238 0 100.172 44.936 100.172 100.172s-44.936 100.172-100.172 100.172zM957.198 230.958h-578.767v66.782h578.777c36.836 0 66.792 29.956 66.792 66.782s-29.956 66.784-66.792 66.784h-145.714c-10.462 177.694-142.272 311.585-199.218 311.585-49.92 0-62.604-40.93-83.87-84.292-16.722-34.096-21.664-43.964-32.784-66.228l-113.672-56.804c-31.672-15.818-48.292-57.278-27.724-92.996 18.48-31.948 58.014-41.236 87.462-26.482l133.564 66.782c10.794 5.392 20.066 14.064 26.838 25.066l35.816 58.302 23.912-64.108c8.672-23.24 14.030-46.982 16.108-70.824h-140.334c-18.394-51.792-67.75-89.042-125.772-89.042-56.294 0-104.458 35.050-124.084 84.434-24.852-9.6-42.4-33.518-42.61-61.682l-0.040 0.014c0-7.146 0-92.386 0-134.072h-178.302c-36.826 0-66.782-29.956-66.782-66.782s30.178-66.782 67.004-66.782v-111.304c0-18.446 14.724-33.39 33.168-33.39 18.446 0 33.39 14.946 33.39 33.39v111.526h48.672c-11.114-31.312 2.308-66.996 32.76-82.222 32.282-16.142 72.724-3.916 89.608 29.87l26.066 52.13h359.633v-44.522c0-36.826 29.734-66.782 66.56-66.782s66.782 29.956 66.782 66.782v44.522h67.004v-111.304c0-18.446 14.724-33.39 33.168-33.39s33.39 14.946 33.39 33.39v111.306c36.83 0.004 66.782 29.958 66.782 66.78 0.012 36.826-29.954 66.782-66.79 66.782z" />
<glyph unicode="&#xe916;" glyph-name="sports-massage" d="M100.172 477.517c-55.236 0-100.172-44.936-100.172-100.174s44.936-100.172 100.172-100.172c55.238 0 100.172 44.936 100.172 100.172s-44.934 100.174-100.172 100.174zM467.474 922.729c-55.238 0-100.172-44.936-100.172-100.172 0-55.238 44.936-100.172 100.172-100.172 55.238 0 100.172 44.936 100.172 100.172s-44.936 100.172-100.172 100.172zM957.196 210.387h-578.766v66.782h578.776c36.836 0 66.792 29.956 66.792 66.782s-29.956 66.784-66.792 66.784h-145.714c-10.462 177.694-142.272 311.584-199.218 311.584-49.92 0-62.604-40.93-83.87-84.292-16.722-34.096-21.664-43.964-32.784-66.228l-113.672-56.804c-31.672-15.818-48.292-57.278-27.724-92.996 18.48-31.948 58.014-41.236 87.462-26.482l133.564 66.782c10.794 5.392 20.066 14.064 26.838 25.066l35.816 58.302 23.912-64.108c8.672-23.24 14.030-46.982 16.108-70.824h-140.334c-18.394-51.792-67.75-89.042-125.772-89.042-56.294 0-104.458 35.050-124.084 84.434-24.852-9.6-42.4-33.518-42.61-61.682l-0.040 0.014c0-7.146 0-92.386 0-134.072h-178.302c-36.826 0-66.782-29.956-66.782-66.782s30.178-66.782 67.004-66.782v-111.304c0-18.446 14.724-33.39 33.168-33.39 18.446 0 33.39 14.946 33.39 33.39v111.526h48.672c-11.114-31.312 2.308-66.996 32.76-82.222 32.282-16.142 72.724-3.916 89.608 29.87l26.066 52.13h359.632v-44.522c0-36.826 29.734-66.782 66.56-66.782s66.782 29.956 66.782 66.782v44.522h67.004v-111.304c0-18.446 14.724-33.39 33.168-33.39s33.39 14.946 33.39 33.39v111.306c36.83 0.004 66.782 29.958 66.782 66.78 0.012 36.826-29.954 66.782-66.79 66.782z" />
<glyph unicode="&#xe917;" glyph-name="therapy" d="M779.13 303.305h-133.566v166.956c0 5.778-0.968 11.288-2.352 16.64-19.122-10.578-41.072-16.64-64.43-16.64h-66.782v-166.956c0-73.652 59.912-133.566 133.566-133.566h133.566v-166.956c0-36.826 29.956-66.782 66.782-66.782s66.782 29.956 66.782 66.782v166.958c0 73.652-59.914 133.564-133.566 133.564zM745.741 737.392c-30.648 0-57.78-14.126-76.17-35.876 26.242-24.404 42.778-59.11 42.778-97.69 0-19.746-4.42-38.442-12.144-55.322 13.724-7.078 29.054-11.46 45.534-11.46 55.238 0 100.174 44.936 100.174 100.174 0.002 55.238-44.934 100.174-100.172 100.174zM712.349 2.784c0 32.73 0 62.204 0 100.174-56.48 0-158.33-14.598-229.128 83.414l-0.008 0.008c-2.85-4.916-4.602-10.55-4.602-16.64v-200.348c0-18.446 14.958-33.392 33.392-33.392h218.42c-11.422 19.674-18.074 42.444-18.074 66.784zM456.349 960c-55.238 0-100.174-44.936-100.174-100.174s44.936-100.174 100.174-100.174c55.238 0 100.174 44.936 100.174 100.174s-44.936 100.174-100.174 100.174zM578.783 670.609h-117.826l-119.434 59.74c-22.456 11.178-50.76 9.744-72.522-8.284-96.95-73.976-157.696-192.352-157.696-318.585v-400.695c0-36.826 29.956-66.782 66.784-66.782 36.826 0 66.782 29.956 66.782 66.782v400.695c0 80.62 31.232 132.376 75.564 188.064l94.914-47.456c9.218-4.608 19.542-7.044 29.87-7.044h133.566c36.826 0 66.782 29.956 66.782 66.782s-29.958 66.784-66.784 66.784z" />
<glyph unicode="&#xe918;" glyph-name="ultrasound" d="M702.39 420.148c-8.284 16.478-28.346 23.142-44.804 14.912-41.784-20.902-87-31.5-134.456-31.5s-92.674 10.598-134.456 31.5c-16.436 8.228-36.502 1.564-44.804-14.912-8.238-16.488-1.564-36.554 14.934-44.804 51.108-25.586 106.414-38.564 164.326-38.564s113.216 12.978 164.326 38.564c16.5 8.248 23.174 28.314 14.934 44.804zM642.61 539.68c-8.238 16.488-28.328 23.206-44.782 14.968-46.784-23.348-102.61-23.348-149.39 0-16.48 8.238-36.546 1.52-44.784-14.968-8.238-16.5-1.542-36.554 14.958-44.794 32.716-16.326 68.63-24.49 104.522-24.49s71.804 8.164 104.522 24.49c16.496 8.238 23.192 28.294 14.954 44.794zM556.522 798.006v128.588c0 18.446-14.958 33.392-33.392 33.392s-33.392-14.946-33.392-33.392v-128.588c-38.782-13.828-66.782-50.546-66.782-94.020 0-55.238 44.936-100.174 100.174-100.174s100.174 44.936 100.174 100.174c0 43.472-28 80.192-66.782 94.020zM100.174 336.712c-55.238 0-100.174-44.936-100.174-100.174s44.936-100.174 100.174-100.174c55.238 0 100.174 44.936 100.174 100.174s-44.936 100.174-100.174 100.174zM245.26 69.58h-145.098c-36.826 0-66.782-29.956-66.782-66.782s29.956-66.782 66.782-66.782h279.23c-7.74 6.828-126.746 126.176-134.132 133.564zM957.206 69.58h-267.424c-7.358-7.358-126.44-126.76-134.142-133.566h401.566c36.838 0 66.794 29.956 66.794 66.782s-29.956 66.784-66.794 66.784zM957.206 269.928c-368.046 0-392.448 0-623.304 0-36.656 0-66.46-29.694-66.732-66.288l-0.040 0.014v-33.898c0-15.712 6.542-34.15 19.61-47.218l133.566-133.566c26.074-26.098 68.344-26.114 94.436 0 11.056 11.060 136.028 133.866 143.874 147.392h295.968c32.298 0 61.966 21.766 68.122 53.47 8.28 42.636-24.308 80.094-65.5 80.094zM448.434 111.538l-38.4 24.826h63.226l-24.826-24.826z" />
<glyph unicode="&#xea38;" glyph-name="arrow-left" d="M32 448l480-480v288h512v384h-512v288z" />
</font>
</defs>
</svg>
