<?xml version="1.0" encoding="UTF-8"?>
<svg width="20px" height="20px" viewBox="0 0 20 20" version="1.1" xmlns="http://www.w3.org/2000/svg" xmlns:xlink="http://www.w3.org/1999/xlink">
    <title>E74762D5-600D-40B1-B96B-5A794A3E7269</title>
    <g id="Symbols" stroke="none" stroke-width="1" fill="none" fill-rule="evenodd">
        <g id="UI/Elements/Nav1" transform="translate(-1261.000000, -4.000000)" fill="#FFFFFF" fill-rule="nonzero" stroke="#FFFFFF" stroke-width="0.5">
            <g id="Nav">
                <path d="M1279.89015,21.8296192 L1274.66128,16.6007471 C1275.65304,15.3763574 1276.25003,13.8197754 1276.25003,12.1250291 C1276.25003,8.19630858 1273.05372,5 1269.125,5 C1265.19627,5 1262,8.19630858 1262,12.1250291 C1262,16.0537496 1265.19631,19.2500582 1269.12503,19.2500582 C1270.81978,19.2500582 1272.37636,18.6530333 1273.60075,17.6613083 L1278.82962,22.8901804 C1278.97612,23.0366065 1279.2135,23.0366065 1279.35999,22.8901804 L1279.89018,22.3599525 C1280.03661,22.2134912 1280.03661,21.9760454 1279.89015,21.8296192 Z M1269.12503,17.7500428 C1266.02322,17.7500428 1263.50002,15.2268375 1263.50002,12.1250291 C1263.50002,9.02322076 1266.02322,6.50001538 1269.12503,6.50001538 C1272.22684,6.50001538 1274.75005,9.02322076 1274.75005,12.1250291 C1274.75005,15.2268375 1272.22684,17.7500428 1269.12503,17.7500428 Z" id="Shape" transform="translate(1271.000000, 14.000000) scale(-1, 1) translate(-1271.000000, -14.000000) "></path>
            </g>
        </g>
    </g>
</svg>