<?xml version="1.0" encoding="UTF-8"?>
<svg width="126px" height="24px" viewBox="0 0 126 24" version="1.1" xmlns="http://www.w3.org/2000/svg" xmlns:xlink="http://www.w3.org/1999/xlink">
    <title>E4B44E90-1574-4C01-9F22-F56C13293ABF</title>
    <g id="Symbols" stroke="none" stroke-width="1" fill="none" fill-rule="evenodd">
        <g id="Elements/Footer&amp;More" transform="translate(-1234.000000, -688.000000)" fill="#303030">
            <g id="Logo/Slate" transform="translate(1234.000000, 688.000000)">
                <path d="M8.46527028,16.7383937 C8.44281745,16.5743166 8.41814706,16.4442933 8.39125911,16.3486051 C8.36437115,16.252917 8.32584099,16.1893125 8.27677741,16.1572288 C8.22715943,16.1254266 8.17560109,16.1093847 8.12182518,16.1093847 C8.05890182,16.1093847 7.98932578,16.1254266 7.91309704,16.1572288 C7.83659111,16.1893125 7.74234468,16.2256177 7.63008054,16.2667073 C7.5178164,16.3075155 7.38975213,16.3443836 7.24644211,16.3759044 C7.1025777,16.4079881 6.94097278,16.4240299 6.76135016,16.4240299 C6.23135256,16.4240299 5.86351427,16.2577014 5.65700369,15.9247628 C5.45021593,15.5923872 5.34709924,15.0928386 5.34709924,14.4275244 L5.34709924,8.6974917 L7.97352564,8.6974917 C8.14400081,8.6974917 8.27428265,8.5905461 8.36437115,8.37609203 C8.45390527,8.16191939 8.49908812,7.8042145 8.49908812,7.30269592 C8.49908812,7.03842771 8.4877231,6.81496769 8.46527028,6.6325973 C8.44281745,6.45022691 8.40899961,6.30669465 8.36437115,6.2017191 C8.3191883,6.09702499 8.26319483,6.02188163 8.19583635,5.9760076 C8.12847787,5.93069644 8.04975437,5.9076187 7.96022026,5.9076187 L5.34709924,5.9076187 L5.34709924,3.18641603 C5.34709924,3.09523084 5.32021128,3.01333302 5.26643538,2.94015971 C5.21238227,2.86726784 5.12257097,2.80591484 4.99700145,2.75553784 C4.87115474,2.7057237 4.69818481,2.66913705 4.47836886,2.64634075 C4.25827571,2.62354445 3.9821891,2.61200558 3.65010901,2.61200558 C3.32689917,2.61200558 3.05497049,2.62354445 2.83515454,2.64634075 C2.61506139,2.66913705 2.4398739,2.7057237 2.30986926,2.75553784 C2.17958742,2.80591484 2.08977611,2.86726784 2.04043533,2.94015971 C1.99109455,3.01333302 1.96642416,3.09523084 1.96642416,3.18641603 L1.96642416,5.9076187 L0.538590659,5.9076187 C0.44877935,5.9076187 0.370333052,5.93069644 0.302974571,5.9760076 C0.235616089,6.02188163 0.179345423,6.09702499 0.134716964,6.2017191 C0.0895341137,6.30669465 0.0557162751,6.45022691 0.0335406432,6.6325973 C0.0110878159,6.81496769 0,7.03842771 0,7.30269592 C0,7.8042145 0.0449056546,8.16191939 0.134716964,8.37609203 C0.224251077,8.5905461 0.354532915,8.6974917 0.52528528,8.6974917 L1.96642416,8.6974917 L1.96642416,14.9470549 C1.96642416,15.6945484 2.04265289,16.3418507 2.19538756,16.8886804 C2.34784503,17.436073 2.58595587,17.8894661 2.90916571,18.2497039 C3.23237554,18.6099417 3.64096156,18.8767428 4.13492376,19.0498259 C4.62860877,19.2229089 5.21238227,19.3093097 5.88596709,19.3093097 C6.13710612,19.3093097 6.38630479,19.2958007 6.63356308,19.2685015 C6.88026699,19.2409208 7.10923039,19.2023641 7.32045328,19.1519871 C7.53112178,19.1018915 7.71545672,19.0425085 7.87262651,18.9741196 C8.02951911,18.9060122 8.14871313,18.8286173 8.22965419,18.7419351 C8.31031805,18.6555343 8.37545897,18.5049662 8.42479975,18.2907935 C8.47414053,18.0766209 8.49908812,17.7687301 8.49908812,17.3676841 C8.49908812,17.1124219 8.4877231,16.9024708 8.46527028,16.7383937 L8.46527028,16.7383937 Z M22.1667616,11.0905402 C22.1667616,10.1879757 22.0902557,9.42021882 21.9377982,8.78642541 C21.7850636,8.15291345 21.5358649,7.59904781 21.1902022,7.1248285 C20.8445396,6.65089063 20.3910479,6.2771439 19.8297272,6.00330687 C19.2686837,5.73003272 18.5792988,5.59325492 17.7624039,5.59325492 C17.1068368,5.59325492 16.4759401,5.73678718 15.869991,6.02385168 C15.2637646,6.31119763 14.6689033,6.7465788 14.0851298,7.32999519 L14.0851298,0.587919369 C14.0851298,0.497015608 14.0582418,0.415117793 14.0044659,0.341944487 C13.95069,0.269052617 13.858384,0.207418178 13.7283793,0.157322608 C13.5980975,0.107227037 13.4251275,0.0683888974 13.2097467,0.0410896256 C12.9943659,0.0137903538 12.7202196,0 12.3881396,0 C12.0557823,0 11.7819132,0.0137903538 11.5665324,0.0410896256 C11.3511516,0.0683888974 11.1779044,0.107227037 11.0478998,0.157322608 C10.917618,0.207418178 10.8258663,0.269052617 10.7718132,0.341944487 C10.7180373,0.415117793 10.6911493,0.497015608 10.6911493,0.587919369 L10.6911493,18.5708221 C10.6911493,18.6622888 10.7180373,18.7419351 10.7718132,18.810324 C10.8258663,18.8787129 10.917618,18.9355629 11.0478998,18.9811555 C11.1779044,19.0270296 11.3511516,19.0610833 11.5665324,19.0835982 C11.7819132,19.106113 12.0557823,19.1179333 12.3881396,19.1179333 C12.7202196,19.1179333 12.9943659,19.106113 13.2097467,19.0835982 C13.4251275,19.0610833 13.5980975,19.0270296 13.7283793,18.9811555 C13.858384,18.9355629 13.95069,18.8787129 14.0044659,18.810324 C14.0582418,18.7419351 14.0851298,18.6622888 14.0851298,18.5708221 L14.0851298,10.4615312 C14.5610743,9.85081558 15.0190011,9.38588365 15.4591874,9.06673546 C15.8990965,8.74758727 16.3345704,8.58801318 16.7656093,8.58801318 C17.1068368,8.58801318 17.4053763,8.65443203 17.6612276,8.78642541 C17.9173562,8.91870024 18.1260843,9.1055736 18.2876892,9.34704551 C18.4492941,9.58879886 18.5726461,9.87839629 18.6580223,10.2155564 C18.7433985,10.5527164 18.7860866,11.0176484 18.7860866,11.6103521 L18.7860866,18.5708221 C18.7860866,18.6622888 18.8129745,18.7419351 18.8667504,18.810324 C18.9208035,18.8787129 19.0103376,18.9355629 19.1361843,18.9811555 C19.2617539,19.0270296 19.4347238,19.0610833 19.6548169,19.0835982 C19.8746329,19.106113 20.1507195,19.1179333 20.4830768,19.1179333 C20.8062866,19.1179333 21.0776609,19.106113 21.2980313,19.0835982 C21.5178472,19.0610833 21.6908171,19.0270296 21.8166638,18.9811555 C21.9422334,18.9355629 22.0320447,18.8787129 22.0858206,18.810324 C22.1398737,18.7419351 22.1667616,18.6622888 22.1667616,18.5708221 L22.1667616,11.0905402 Z M36.1895225,11.5692625 C36.1895225,10.712572 36.0816934,9.91920447 35.8663126,9.1897229 C35.6506546,8.46052277 35.3141394,7.82926229 34.8559354,7.29566003 C34.3980086,6.7623392 33.8122947,6.34525136 33.0982394,6.0443965 C32.3844612,5.74354163 31.5246011,5.59325492 30.5189362,5.59325492 C29.5670472,5.59325492 28.7118994,5.75282902 27.9529384,6.0719772 C27.1942546,6.39112539 26.5500525,6.85380583 26.0203321,7.46001853 C25.4903345,8.06623122 25.0861836,8.80471874 24.8081566,9.67519964 C24.5295752,10.545962 24.3904231,11.5236699 24.3904231,12.6086049 C24.3904231,13.7484199 24.5229225,14.7421696 24.7879213,15.5898542 C25.0526429,16.4378203 25.4545763,17.1397211 25.9934441,17.6958383 C26.5320348,18.2519554 27.203402,18.6667917 28.0069915,18.9403473 C28.8105809,19.2139029 29.7466698,19.3503993 30.8152581,19.3503993 C31.4079018,19.3503993 31.9645102,19.3118426 32.4853603,19.2341663 C33.0062105,19.1567715 33.4688496,19.0653048 33.8727233,18.9608922 C34.2768742,18.8559166 34.6089543,18.7486896 34.869518,18.639211 C35.1298044,18.530014 35.2891918,18.4433317 35.34768,18.3794458 C35.4058911,18.3155599 35.4530143,18.2497039 35.4890497,18.181315 C35.5248079,18.1129261 35.5516958,18.0287768 35.5699907,17.9283042 C35.5877312,17.8281131 35.6013138,17.7073771 35.6101841,17.5660964 C35.6193315,17.4245342 35.6237666,17.2537026 35.6237666,17.0533204 C35.6237666,16.8250759 35.617114,16.6362325 35.6035314,16.4853829 C35.590226,16.3350962 35.5652784,16.2185818 35.5295202,16.136684 C35.4934848,16.0547862 35.4488563,15.9979361 35.3948032,15.9658525 C35.3410273,15.9337688 35.2736689,15.9180084 35.1927278,15.9180084 C35.0580108,15.9180084 34.8831005,15.9613495 34.6674425,16.0480317 C34.4520617,16.1344325 34.1804102,16.2304021 33.852488,16.3350962 C33.5248431,16.4397903 33.1362151,16.5357599 32.6874358,16.6221607 C32.2383792,16.7091244 31.7178063,16.7521841 31.1251625,16.7521841 C30.541389,16.7521841 30.0407741,16.6747892 29.6233179,16.5197181 C29.2055844,16.3649284 28.8643569,16.1392169 28.5996352,15.842865 C28.3346364,15.5467946 28.1417084,15.1862753 28.0205741,14.762433 C27.8991625,14.3385907 27.8387339,13.8663415 27.8387339,13.3470924 L35.1525345,13.3470924 C35.4757443,13.3470924 35.7291009,13.2466198 35.9134358,13.0459561 C36.0972164,12.8458553 36.1895225,12.535713 36.1895225,12.1163737 L36.1895225,11.5692625 Z M27.8387339,11.1316299 C27.8564744,10.7032846 27.9216153,10.2997057 28.0338794,9.92145596 C28.1461436,9.54320626 28.3077485,9.21505212 28.5186942,8.93671213 C28.7296399,8.65865356 28.9946387,8.43772647 29.3134134,8.2736494 C29.6321881,8.1092909 30.0072335,8.02739308 30.4382723,8.02739308 C31.2912026,8.02739308 31.9218221,8.30320016 32.3306853,8.85481431 C32.7389941,9.40642846 32.9299818,10.1654608 32.9030938,11.1316299 L27.8387339,11.1316299 Z M56.4879871,9.69574446 C56.3083645,8.88436507 56.0234076,8.17345826 55.6328393,7.56246116 C55.242271,6.95174549 54.7369438,6.47077172 54.1174121,6.11982129 C53.4978803,5.76887086 52.7480668,5.59325492 51.8682486,5.59325492 C51.44608,5.59325492 51.0485818,5.63912896 50.6763084,5.73003272 C50.3034806,5.82121791 49.9420178,5.96024719 49.59192,6.14712056 C49.241545,6.33399393 48.8980999,6.56645989 48.5613075,6.84451845 C48.2247923,7.12257701 47.8813472,7.44397669 47.5309722,7.80843604 L47.5309722,6.37283206 C47.5309722,6.28164687 47.5085194,6.2017191 47.4636137,6.13333021 C47.418708,6.06494131 47.3402618,6.00809128 47.2279976,5.96249868 C47.1157335,5.91690608 46.9674339,5.88257092 46.7836534,5.85977462 C46.5993185,5.83725975 46.3728498,5.82572089 46.1034159,5.82572089 C45.8248345,5.82572089 45.5936535,5.83725975 45.4095958,5.85977462 C45.2255381,5.88257092 45.0772385,5.91690608 44.9652516,5.96249868 C44.8529874,6.00809128 44.7742639,6.06494131 44.7293583,6.13333021 C44.6844526,6.2017191 44.6619998,6.28164687 44.6619998,6.37283206 L44.6619998,23.4120806 C44.6619998,23.5029844 44.689165,23.5851636 44.7429409,23.6580555 C44.7967168,23.7309474 44.8887456,23.7925818 45.0190275,23.8426774 C45.1490321,23.892773 45.3220021,23.9316111 45.5376601,23.9591918 C45.7530409,23.9862096 46.02691,24 46.3592672,24 C46.6913473,24 46.9652164,23.9862096 47.1808744,23.9591918 C47.3962552,23.9316111 47.5692252,23.892773 47.699507,23.8426774 C47.8295116,23.7925818 47.9215405,23.7309474 47.9755936,23.6580555 C48.0293695,23.5851636 48.0565347,23.5029844 48.0565347,23.4120806 L48.0565347,17.6682576 C48.3437091,17.9511005 48.6220133,18.1970754 48.8914472,18.4070265 C49.1608811,18.6166962 49.4322554,18.7920307 49.7064017,18.9333114 C49.9802707,19.0745922 50.26301,19.1795678 50.5548968,19.2479567 C50.8465063,19.3163456 51.1677758,19.3503993 51.5178736,19.3503993 C52.3619336,19.3503993 53.1117471,19.1863222 53.7673143,18.8581681 C54.4226042,18.530014 54.9706195,18.0605791 55.4105286,17.449582 C55.8504377,16.8388663 56.1850125,16.0984087 56.4139759,15.2276464 C56.6429393,14.356884 56.757421,13.3791761 56.757421,12.2942411 C56.757421,11.3733832 56.6676097,10.5074053 56.4879871,9.69574446 L56.4879871,9.69574446 Z M53.0870768,13.9350118 C52.9928303,14.3999437 52.8467483,14.8170316 52.6493852,15.1862753 C52.4517449,15.5555191 52.1981111,15.8544039 51.8882067,16.0820854 C51.5785794,16.3100484 51.203534,16.4240299 50.7636249,16.4240299 C50.2968279,16.4240299 49.8477713,16.2577014 49.4167325,15.9247628 C48.9856936,15.5923872 48.532202,15.1207008 48.0565347,14.5094222 L48.0565347,10.4888305 C48.3256914,10.1243712 48.5818199,9.8187319 48.8240887,9.57275702 C49.0666347,9.3265007 49.3022508,9.12611841 49.5312142,8.97104729 C49.7601776,8.81597617 49.9847059,8.70424616 50.204799,8.63585727 C50.424615,8.56746837 50.6469257,8.53341464 50.8714539,8.53341464 C51.3202333,8.53341464 51.6952787,8.64514465 51.9960357,8.86832323 C52.2967927,9.09206468 52.5393386,9.39038662 52.7233964,9.76413335 C52.9074541,10.1381615 53.037736,10.5642553 53.1139647,11.0426962 C53.1901934,11.5214184 53.2284464,12.0206855 53.2284464,12.540216 C53.2284464,13.0051479 53.1813232,13.4700799 53.0870768,13.9350118 L53.0870768,13.9350118 Z M70.6177453,11.0905402 C70.6177453,10.1879757 70.5412394,9.42021882 70.3887819,8.78642541 C70.2360473,8.15291345 69.9868486,7.59904781 69.641186,7.1248285 C69.2952461,6.65089063 68.8420316,6.2771439 68.2809881,6.00330687 C67.7196675,5.73003272 67.0302825,5.59325492 66.2133877,5.59325492 C65.5578205,5.59325492 64.927201,5.73678718 64.3209747,6.02385168 C63.7147483,6.31119763 63.119887,6.7465788 62.5361135,7.32999519 L62.5361135,0.587919369 C62.5361135,0.497015608 62.5092255,0.415117793 62.4554496,0.341944487 C62.4016737,0.269052617 62.3093677,0.207418178 62.179363,0.157322608 C62.0490812,0.107227037 61.8761113,0.0683888974 61.6607304,0.0410896256 C61.4453496,0.0137903538 61.1712034,0 60.8391233,0 C60.506766,0 60.2328969,0.0137903538 60.0175161,0.0410896256 C59.8018581,0.0683888974 59.6288882,0.107227037 59.4988835,0.157322608 C59.3686017,0.207418178 59.2765728,0.269052617 59.2227969,0.341944487 C59.169021,0.415117793 59.1418558,0.497015608 59.1418558,0.587919369 L59.1418558,18.5708221 C59.1418558,18.6622888 59.169021,18.7419351 59.2227969,18.810324 C59.2765728,18.8787129 59.3686017,18.9355629 59.4988835,18.9811555 C59.6288882,19.0270296 59.8018581,19.0610833 60.0175161,19.0835982 C60.2328969,19.106113 60.506766,19.1179333 60.8391233,19.1179333 C61.1712034,19.1179333 61.4453496,19.106113 61.6607304,19.0835982 C61.8761113,19.0610833 62.0490812,19.0270296 62.179363,18.9811555 C62.3093677,18.9355629 62.4016737,18.8787129 62.4554496,18.810324 C62.5092255,18.7419351 62.5361135,18.6622888 62.5361135,18.5708221 L62.5361135,10.4615312 C63.012058,9.85081558 63.4699848,9.38588365 63.9101711,9.06673546 C64.349803,8.74758727 64.7855542,8.58801318 65.216593,8.58801318 C65.5578205,8.58801318 65.85636,8.65443203 66.1122113,8.78642541 C66.3680627,8.91870024 66.5767908,9.1055736 66.7386729,9.34704551 C66.9002779,9.58879886 67.0236298,9.87839629 67.109006,10.2155564 C67.1943822,10.5527164 67.2370703,11.0176484 67.2370703,11.6103521 L67.2370703,18.5708221 C67.2370703,18.6622888 67.2639582,18.7419351 67.3177341,18.810324 C67.37151,18.8787129 67.4615985,18.9355629 67.5871681,18.9811555 C67.7127376,19.0270296 67.8854303,19.0610833 68.1058006,19.0835982 C68.3253394,19.106113 68.6017032,19.1179333 68.9340605,19.1179333 C69.2575475,19.1179333 69.5286446,19.106113 69.749015,19.0835982 C69.9688309,19.0610833 70.1418008,19.0270296 70.2676476,18.9811555 C70.3932171,18.9355629 70.4830284,18.8787129 70.5368043,18.810324 C70.5908574,18.7419351 70.6177453,18.6622888 70.6177453,18.5708221 L70.6177453,11.0905402 Z M84.2380184,7.08373887 C84.3100893,6.85605732 84.3458475,6.65764509 84.3458475,6.48878361 C84.3458475,6.32020357 84.2854189,6.1859587 84.1642845,6.08548612 C84.0428729,5.98529498 83.85438,5.91690608 83.5982515,5.88031943 C83.3424001,5.84401421 83.021685,5.82572089 82.6352747,5.82572089 C82.1413125,5.82572089 81.7956498,5.84401421 81.5982867,5.88031943 C81.4006463,5.91690608 81.2589995,5.97403755 81.1739005,6.05143239 C81.0885243,6.12882723 81.0192255,6.28614984 80.9651724,6.52311878 L78.3792165,14.8513667 L78.338746,14.8513667 L75.5102441,6.68719584 C75.4473208,6.47752618 75.3843974,6.31598204 75.3217513,6.2017191 C75.2588279,6.08773761 75.1643043,6.00330687 75.0387348,5.94870833 C74.912888,5.89410978 74.7377006,5.85977462 74.5134495,5.8462657 C74.2889212,5.83247535 73.9834519,5.82572089 73.5975959,5.82572089 C73.1754273,5.82572089 72.8364173,5.84401421 72.580566,5.88031943 C72.3247146,5.91690608 72.1428744,5.98304349 72.0353226,6.07873166 C71.9274936,6.17441983 71.8734405,6.30669465 71.8734405,6.47527469 C71.8734405,6.64413617 71.9319287,6.88785956 72.048628,7.20700775 L76.1838289,18.4205354 C76.2281802,18.5483073 76.2980335,18.6687618 76.3925571,18.7830247 C76.4868035,18.8972877 76.5921378,18.9811555 76.708837,19.0360355 L75.1060932,23.1250161 C75.0431699,23.2795244 75.0165591,23.4120806 75.0254294,23.5215592 C75.0342996,23.6310377 75.0925107,23.72166 75.2006169,23.7948333 C75.3081687,23.8677252 75.4697736,23.9200722 75.6851544,23.9518745 C75.9008124,23.9839582 76.1879869,24 76.5472321,24 C77.2385574,24 77.7641199,23.9499044 78.123088,23.8497133 C78.4823332,23.7492407 78.7024263,23.5851636 78.7830902,23.3572007 L80.2378117,19.0360355 L84.2380184,7.08373887 Z M94.2747094,13.682001 C94.1039571,13.276452 93.8791516,12.9277531 93.6011246,12.6361856 C93.3225432,12.3443367 93.0062633,12.0980804 92.6514532,11.8974167 C92.2966431,11.6970344 91.937675,11.5214184 91.5739947,11.3711317 C91.2103143,11.2205636 90.8510691,11.0815343 90.496259,10.9537624 C90.141726,10.826272 89.8251689,10.6894942 89.5468647,10.5437105 C89.2682833,10.3979268 89.0437551,10.2290653 88.8735571,10.0376889 C88.7028047,9.8463126 88.6174286,9.60906223 88.6174286,9.3265007 C88.6174286,9.14441174 88.6531868,8.97329878 88.7252576,8.81372469 C88.7970512,8.65443203 88.904603,8.51512131 89.0484674,8.39663684 C89.1920546,8.27815237 89.3761124,8.18696718 89.6006406,8.12308125 C89.8251689,8.05947676 90.0898905,8.02739308 90.3953598,8.02739308 C90.8263987,8.02739308 91.2103143,8.07523717 91.5471067,8.17092534 C91.8836219,8.26661351 92.180221,8.36933757 92.4360724,8.47881609 C92.6916465,8.58801318 92.905087,8.69045581 93.0755621,8.78642541 C93.2463145,8.88211358 93.3721612,8.92995767 93.4528251,8.92995767 C93.5246187,8.92995767 93.5878192,8.91419726 93.641318,8.88211358 C93.6953711,8.85031134 93.7380591,8.7886769 93.7693822,8.6974917 C93.8009825,8.60658794 93.8234353,8.48331907 93.8367407,8.32824794 C93.8500461,8.17345826 93.856976,7.97279454 93.856976,7.72653822 C93.856976,7.51686856 93.8500461,7.34153406 93.8367407,7.19997186 C93.8234353,7.05869109 93.8076352,6.94020662 93.7898947,6.84451845 C93.7715998,6.74883028 93.7447118,6.66665103 93.7089536,6.59826213 C93.6729182,6.52987324 93.6122124,6.46148434 93.5271134,6.39309544 C93.4417373,6.32470654 93.3000904,6.24280873 93.1027273,6.14712056 C92.905087,6.05143239 92.662541,5.96249868 92.3753666,5.88031943 C92.0879149,5.79842161 91.7669227,5.73003272 91.4123898,5.67515274 C91.0575796,5.62055419 90.6916817,5.59325492 90.314696,5.59325492 C89.5604473,5.59325492 88.8802098,5.68894309 88.2739835,5.88031943 C87.6677571,6.0719772 87.1535597,6.34074838 86.7316683,6.68719584 C86.3097769,7.0336433 85.9862898,7.45073115 85.7620388,7.93845937 C85.5375105,8.4261876 85.4252463,8.96204135 85.4252463,9.54517631 C85.4252463,10.1195868 85.5081278,10.6120994 85.674445,11.0224328 C85.840485,11.4324847 86.060301,11.7837166 86.3344472,12.0752841 C86.6083163,12.367133 86.9179436,12.6133893 87.2638834,12.8134902 C87.6092689,13.0144353 87.964079,13.1923027 88.3277594,13.3470924 C88.6917169,13.502445 89.0462498,13.6434443 89.3919125,13.7709347 C89.7375752,13.898988 90.0472024,14.0354844 90.3213487,14.1812681 C90.5952177,14.3273333 90.8153109,14.4981648 90.9813509,14.6940441 C91.147391,14.8899234 91.2305496,15.1249223 91.2305496,15.3981965 C91.2305496,15.6357283 91.1853667,15.8448351 91.0958326,16.0274869 C91.0060213,16.2098573 90.8737991,16.3604254 90.6986116,16.4789099 C90.5234241,16.5971129 90.3166363,16.6885796 90.0790799,16.7521841 C89.840969,16.81607 89.5693175,16.8478722 89.2641254,16.8478722 C88.7793107,16.8478722 88.3457771,16.7890521 87.964079,16.6700048 C87.5826581,16.5518018 87.2480833,16.4240299 86.9606317,16.2869707 C86.67318,16.1504743 86.4331288,16.0252354 86.2402008,15.9109725 C86.0469956,15.7972724 85.9011908,15.7404224 85.8022321,15.7404224 C85.7215682,15.7404224 85.6544869,15.7561828 85.6004338,15.7882665 C85.5463807,15.8200687 85.5014751,15.8836732 85.4657169,15.9793614 C85.4296815,16.0756124 85.4027935,16.2031028 85.3847758,16.3623955 C85.3667581,16.522251 85.3578879,16.7338907 85.3578879,16.9981589 C85.3578879,17.3994864 85.3847758,17.7025927 85.4388289,17.9077594 C85.4926048,18.1129261 85.5688336,18.2632128 85.6677923,18.3591824 C85.7664739,18.4548706 85.9236437,18.5570318 86.1393017,18.6667917 C86.3546825,18.7762703 86.6241164,18.8834973 86.9473263,18.98791 C87.2705361,19.0928855 87.636434,19.1795678 88.0450201,19.2479567 C88.4536061,19.3163456 88.8824274,19.3503993 89.3314839,19.3503993 C90.0765851,19.3503993 90.7679105,19.2614656 91.4057371,19.0835982 C92.0430093,18.9060122 92.5951825,18.639211 93.0622568,18.2837576 C93.529331,17.9283042 93.8907938,17.4861686 94.146368,16.9570693 C94.4024965,16.4285329 94.5305608,15.8178172 94.5305608,15.1249223 C94.5305608,14.5690866 94.4451846,14.0878314 94.2747094,13.682001 L94.2747094,13.682001 Z M100.097753,6.40013134 C100.097753,6.30894614 100.071142,6.22901838 100.017089,6.16062948 C99.9630362,6.09224058 99.8710073,6.03313906 99.7410027,5.98304349 C99.6107209,5.93294792 99.4380281,5.89410978 99.2223701,5.86681051 C99.0069893,5.83951124 98.732843,5.82572089 98.4007629,5.82572089 C98.0684057,5.82572089 97.7948138,5.83951124 97.5791558,5.86681051 C97.363775,5.89410978 97.1905278,5.93294792 97.0605232,5.98304349 C96.9302414,6.03313906 96.8384897,6.09224058 96.7844366,6.16062948 C96.7306607,6.22901838 96.7037727,6.30894614 96.7037727,6.40013134 L96.7037727,18.5708221 C96.7037727,18.6622888 96.7306607,18.7419351 96.7844366,18.810324 C96.8384897,18.8787129 96.9302414,18.9355629 97.0605232,18.9811555 C97.1905278,19.0270296 97.363775,19.0610833 97.5791558,19.0835982 C97.7948138,19.106113 98.0684057,19.1179333 98.4007629,19.1179333 C98.732843,19.1179333 99.0069893,19.106113 99.2223701,19.0835982 C99.4380281,19.0610833 99.6107209,19.0270296 99.7410027,18.9811555 C99.8710073,18.9355629 99.9630362,18.8787129 100.017089,18.810324 C100.071142,18.7419351 100.097753,18.6622888 100.097753,18.5708221 L100.097753,6.40013134 Z M99.9497308,0.854720499 C99.6805741,0.594955263 99.1685942,0.464931928 98.4143455,0.464931928 C97.6509494,0.464931928 97.1323168,0.599739672 96.8584477,0.868510853 C96.5848559,1.13728203 96.4479214,1.6182558 96.4479214,2.31115072 C96.4479214,2.97674637 96.5801436,3.43717532 96.8451424,3.69243759 C97.109864,3.94769985 97.6240614,4.07519026 98.3874576,4.07519026 C99.1417062,4.07519026 99.6578441,3.94319688 99.9364255,3.67864723 C100.214452,3.41437902 100.353882,2.93565674 100.353882,2.24276182 C100.353882,1.57744761 100.219165,1.11448573 99.9497308,0.854720499 L99.9497308,0.854720499 Z M114.867278,9.46327849 C114.615862,8.62459983 114.231947,7.91791456 113.715532,7.34350411 C113.199394,6.76909366 112.546044,6.33399393 111.756037,6.03764204 C110.965753,5.74157158 110.031882,5.59325492 108.954423,5.59325492 C107.850077,5.59325492 106.886823,5.76183496 106.065216,6.09927648 C105.243886,6.43671799 104.558936,6.91290735 104.011198,7.52812599 C103.46346,8.14362607 103.052656,8.88211358 102.778787,9.74358854 C102.504918,10.6053449 102.367983,11.5554722 102.367983,12.5948145 C102.367983,13.6704621 102.493553,14.6279067 102.745246,15.4665854 C102.996385,16.3058269 103.382796,17.0119493 103.903369,17.5863597 C104.424219,18.1607702 105.079509,18.5984029 105.869793,18.8992577 C106.660077,19.1998311 107.589236,19.3503993 108.658101,19.3503993 C109.762448,19.3503993 110.727642,19.1818192 111.553962,18.8443777 C112.380004,18.5072177 113.066894,18.0287768 113.614632,17.4087738 C114.162371,16.7890521 114.570957,16.0502832 114.84039,15.1933112 C115.109824,14.3363392 115.244541,13.388182 115.244541,12.3488397 C115.244541,11.2639047 115.118695,10.3022386 114.867278,9.46327849 L114.867278,9.46327849 Z M111.58085,14.2156033 C111.463873,14.7216248 111.284528,15.1519401 111.042259,15.507675 C110.799713,15.8634098 110.489809,16.1344325 110.112823,16.3213059 C109.73556,16.5081792 109.290939,16.6018973 108.779236,16.6018973 C108.22235,16.6018973 107.755553,16.4991733 107.378568,16.294288 C107.001305,16.0888399 106.702765,15.7998053 106.482949,15.4257772 C106.262579,15.0520304 106.103469,14.6121463 106.004787,14.1061247 C105.905828,13.6001032 105.856488,13.0459561 105.856488,12.4445278 C105.856488,11.7972255 105.917193,11.2205636 106.038328,10.714542 C106.159462,10.2085205 106.341302,9.77567222 106.583848,9.41543441 C106.826117,9.05547803 107.136022,8.78192244 107.513007,8.59504908 C107.89027,8.40817571 108.330179,8.31445759 108.833289,8.31445759 C109.399045,8.31445759 109.868059,8.41943314 110.24061,8.62910281 C110.613161,8.83905391 110.911977,9.13062139 111.136228,9.50436812 C111.360479,9.87839629 111.520144,10.317999 111.614668,10.8240205 C111.708637,11.3300421 111.756037,11.8839077 111.756037,12.485336 C111.756037,13.1329198 111.697549,13.7093003 111.58085,14.2156033 L111.58085,14.2156033 Z M125.744149,13.682001 C125.573396,13.276452 125.348868,12.9277531 125.070564,12.6361856 C124.79226,12.3443367 124.47598,12.0980804 124.12117,11.8974167 C123.766359,11.6970344 123.407114,11.5214184 123.043434,11.3711317 C122.680031,11.2205636 122.320508,11.0815343 121.966253,10.9537624 C121.611165,10.826272 121.294608,10.6894942 121.016581,10.5437105 C120.738,10.3979268 120.513471,10.2290653 120.343274,10.0376889 C120.172244,9.8463126 120.087145,9.60906223 120.087145,9.3265007 C120.087145,9.14441174 120.122903,8.97329878 120.194697,8.81372469 C120.26649,8.65443203 120.374319,8.51512131 120.517907,8.39663684 C120.661771,8.27815237 120.845829,8.18696718 121.07008,8.12308125 C121.294608,8.05947676 121.559607,8.02739308 121.864799,8.02739308 C122.296115,8.02739308 122.680031,8.07523717 123.016546,8.17092534 C123.353338,8.26661351 123.64966,8.36933757 123.905512,8.47881609 C124.16164,8.58801318 124.374803,8.69045581 124.545279,8.78642541 C124.715754,8.88211358 124.8416,8.92995767 124.922541,8.92995767 C124.994335,8.92995767 125.057258,8.91419726 125.111034,8.88211358 C125.16481,8.85031134 125.207498,8.7886769 125.238821,8.6974917 C125.270422,8.60658794 125.292875,8.48331907 125.306457,8.32824794 C125.319762,8.17345826 125.326415,7.97279454 125.326415,7.72653822 C125.326415,7.51686856 125.319762,7.34153406 125.306457,7.19997186 C125.292875,7.05869109 125.277074,6.94020662 125.259334,6.84451845 C125.241316,6.74883028 125.214151,6.66665103 125.17867,6.59826213 C125.142357,6.52987324 125.081929,6.46148434 124.996553,6.39309544 C124.911176,6.32470654 124.769807,6.24280873 124.572444,6.14712056 C124.374803,6.05143239 124.132257,5.96249868 123.845083,5.88031943 C123.557354,5.79842161 123.236639,5.73003272 122.882106,5.67515274 C122.527296,5.62055419 122.161121,5.59325492 121.784135,5.59325492 C121.030164,5.59325492 120.349649,5.68894309 119.743423,5.88031943 C119.137474,6.0719772 118.623276,6.34074838 118.201662,6.68719584 C117.779216,7.0336433 117.456006,7.45073115 117.231755,7.93845937 C117.00695,8.4261876 116.894963,8.96204135 116.894963,9.54517631 C116.894963,10.1195868 116.977844,10.6120994 117.144161,11.0224328 C117.309924,11.4324847 117.530017,11.7837166 117.804164,12.0752841 C118.077756,12.367133 118.38766,12.6133893 118.7336,12.8134902 C119.078985,13.0144353 119.433795,13.1923027 119.797476,13.3470924 C120.161156,13.502445 120.515689,13.6434443 120.861629,13.7709347 C121.207014,13.898988 121.516919,14.0354844 121.791065,14.1812681 C122.064657,14.3273333 122.28475,14.4981648 122.451067,14.6940441 C122.61683,14.8899234 122.699989,15.1249223 122.699989,15.3981965 C122.699989,15.6357283 122.655083,15.8448351 122.565549,16.0274869 C122.475461,16.2098573 122.343238,16.3604254 122.168051,16.4789099 C121.993141,16.5971129 121.786353,16.6885796 121.548519,16.7521841 C121.310408,16.81607 121.038757,16.8478722 120.733565,16.8478722 C120.24875,16.8478722 119.815216,16.7890521 119.433795,16.6700048 C119.052097,16.5518018 118.717522,16.4240299 118.430348,16.2869707 C118.142896,16.1504743 117.902845,16.0252354 117.70964,15.9109725 C117.516712,15.7972724 117.37063,15.7404224 117.271948,15.7404224 C117.191285,15.7404224 117.123926,15.7561828 117.07015,15.7882665 C117.016097,15.8200687 116.970914,15.8836732 116.935433,15.9793614 C116.899121,16.0756124 116.87251,16.2031028 116.854769,16.3623955 C116.836475,16.522251 116.827604,16.7338907 116.827604,16.9981589 C116.827604,17.3994864 116.854769,17.7025927 116.908268,17.9077594 C116.962321,18.1129261 117.03855,18.2632128 117.137232,18.3591824 C117.23619,18.4548706 117.393083,18.5570318 117.608741,18.6667917 C117.824122,18.7762703 118.093556,18.8834973 118.417043,18.98791 C118.740253,19.0928855 119.105873,19.1795678 119.514736,19.2479567 C119.923045,19.3163456 120.351867,19.3503993 120.800923,19.3503993 C121.546024,19.3503993 122.237627,19.2614656 122.875176,19.0835982 C123.512726,18.9060122 124.064899,18.639211 124.531973,18.2837576 C124.99877,17.9283042 125.360233,17.4861686 125.616084,16.9570693 C125.871936,16.4285329 126,15.8178172 126,15.1249223 C126,14.5690866 125.914624,14.0878314 125.744149,13.682001 L125.744149,13.682001 Z" id="Fill-1"></path>
            </g>
        </g>
    </g>
</svg>