<?xml version="1.0" encoding="UTF-8"?>
<svg width="19px" height="22px" viewBox="0 0 19 22" version="1.1" xmlns="http://www.w3.org/2000/svg" xmlns:xlink="http://www.w3.org/1999/xlink">
    <title>DFD82A54-6788-4D0C-B5AB-5526B2E2B4E8</title>
    <g id="UI" stroke="none" stroke-width="1" fill="none" fill-rule="evenodd">
        <g id="Home-V4" transform="translate(-571.000000, -5167.000000)" fill="#FFFFFF" fill-rule="nonzero">
            <g id="Section-5" transform="translate(0.000000, 4503.000000)">
                <g id="Group-6" transform="translate(140.000000, 100.000000)">
                    <g id="Shape" transform="translate(309.000000, 562.000000)">
                        <path d="M131.500056,2 C126.251248,2 122,2.57896594 122,6.63156466 L122,18.2105035 C122,19.2352411 122.463127,20.1442074 123.187486,20.7810319 L123.187486,22.8421224 C123.187486,23.4789469 123.721863,24 124.374972,24 L125.562514,24 C126.221579,24 126.75,23.4789469 126.75,22.8421224 L126.75,21.6842448 L136.250056,21.6842448 L136.250056,22.8421224 C136.250056,23.4789469 136.778477,24 137.437542,24 L138.625028,24 C139.278137,24 139.812514,23.4789469 139.812514,22.8421224 L139.812514,20.7810862 C140.536873,20.1442616 141,19.2352954 141,18.2105577 L141,6.63156466 C141,2.57896594 136.748808,2 131.500056,2 Z M126.156285,19.3684353 C125.170637,19.3684353 124.375028,18.5926633 124.375028,17.6315918 C124.375028,16.6705203 125.170637,15.8947483 126.156285,15.8947483 C127.141932,15.8947483 127.937542,16.6705203 127.937542,17.6315918 C127.937542,18.5926633 127.141877,19.3684353 126.156285,19.3684353 Z M136.843827,19.3684353 C135.858179,19.3684353 135.06257,18.5926633 135.06257,17.6315918 C135.06257,16.6705203 135.858179,15.8947483 136.843827,15.8947483 C137.829474,15.8947483 138.625083,16.6705203 138.625083,17.6315918 C138.625083,18.5926633 137.829418,19.3684353 136.843827,19.3684353 Z M138.625083,12.4210612 L124.375028,12.4210612 L124.375028,6.63156466 L138.625083,6.63156466 L138.625083,12.4210612 Z"></path>
                    </g>
                </g>
            </g>
        </g>
    </g>
</svg>