<?xml version="1.0" encoding="UTF-8"?>
<svg width="28px" height="18px" viewBox="0 0 28 18" version="1.1" xmlns="http://www.w3.org/2000/svg" xmlns:xlink="http://www.w3.org/1999/xlink">
    <title>8B2228A0-CBEF-44B9-87BA-29A029052E86</title>
    <g id="UI" stroke="none" stroke-width="1" fill="none" fill-rule="evenodd">
        <g id="Home-V4" transform="translate(-746.000000, -5169.000000)" fill="#FFFFFF" fill-rule="nonzero">
            <g id="Section-5" transform="translate(0.000000, 4503.000000)">
                <g id="Group-6" transform="translate(140.000000, 100.000000)">
                    <g id="Stacked-Group" transform="translate(309.000000, 562.000000)">
                        <g transform="translate(171.000000, 0.000000)" id="Shape">
                            <path d="M128.210526,4 L151.789474,4 C152.850699,4.00285126 153.76139,4.74902584 153.963158,5.7808966 L140,13.488991 L126.036842,5.7808966 C126.23861,4.74902584 127.149301,4.00285126 128.210526,4 Z M151.789474,22 L128.210526,22 C126.991283,21.9962934 126.003454,21.0180264 126,19.8102328 L126,7.4306352 L139.639062,14.9633772 C139.749589,15.0235388 139.873643,15.0563282 140,15.0583241 C140.126933,15.0597497 140.251562,15.0269602 140.360938,14.9633772 L154,7.4306352 L154,19.8102328 C153.999136,21.0191668 153.009868,21.9988596 151.789474,22 Z"></path>
                        </g>
                    </g>
                </g>
            </g>
        </g>
    </g>
</svg>