<?xml version="1.0" encoding="UTF-8"?>
<svg width="14px" height="13px" viewBox="0 0 14 13" version="1.1" xmlns="http://www.w3.org/2000/svg" xmlns:xlink="http://www.w3.org/1999/xlink">
    <title>05623294-45B8-4583-8A40-D5688462B833</title>
    <g id="UI" stroke="none" stroke-width="1" fill="none" fill-rule="evenodd">
        <g id="Home-V4" transform="translate(-140.000000, -3435.000000)" fill="#F39600" fill-rule="nonzero">
            <g id="Section-4" transform="translate(0.000000, 2863.000000)">
                <g id="Group-9" transform="translate(110.000000, 502.000000)">
                    <g id="Stacked-Group-3" transform="translate(30.000000, 31.000000)">
                        <g id="UI/Icons/GoogleReviewStar" transform="translate(0.000000, 39.000000)">
                            <path d="M13.6284674,4.64656486 L9.32464553,4.03519616 L7.39556734,0.214006168 C7.25148439,-0.0713353895 6.74806906,-0.0713353895 6.60398611,0.214006168 L4.67549124,4.03519616 L0.371669367,4.64656486 C0.0181703079,4.69701498 -0.122995983,5.09681865 0.124920024,5.33279503 L3.25157837,8.31314963 L2.512497,12.5265486 C2.45358049,12.8612554 2.83799614,13.112421 3.15591196,12.9480513 L7.00006839,10.9723594 L10.8442248,12.9485938 C11.159224,13.1113361 11.5471396,12.8650527 11.4876398,12.5270911 L10.7485584,8.3136921 L13.8752168,5.3333375 C14.1231328,5.09681865 13.9813831,4.69701498 13.6284674,4.64656486 L13.6284674,4.64656486 Z" id="Path-Copy-4"></path>
                        </g>
                    </g>
                </g>
            </g>
        </g>
    </g>
</svg>