<?xml version="1.0" encoding="UTF-8"?>
<svg width="147px" height="28px" viewBox="0 0 147 28" version="1.1" xmlns="http://www.w3.org/2000/svg" xmlns:xlink="http://www.w3.org/1999/xlink">
    <title>9E978615-9D84-4F9C-BE59-CC1615E17769</title>
    <g id="Symbols" stroke="none" stroke-width="1" fill="none" fill-rule="evenodd">
        <g id="Logo/Slate" fill="#FFFFFF">
            <path d="M9.87614866,19.528126 C9.84995369,19.3367027 9.82117157,19.1850089 9.78980229,19.0733727 C9.75843301,18.9617365 9.71348116,18.8875312 9.65624031,18.8501003 C9.59835267,18.8129976 9.53820127,18.7942822 9.47546271,18.7942822 C9.40205213,18.7942822 9.32088007,18.8129976 9.23194655,18.8501003 C9.14268963,18.8875312 9.03273546,18.9298873 8.90176063,18.9778252 C8.7707858,19.0254348 8.62137749,19.0684475 8.45418246,19.1052218 C8.28634065,19.1426528 8.09780158,19.1613682 7.88824186,19.1613682 C7.26991132,19.1613682 6.84076664,18.9673183 6.59983764,18.57889 C6.35858525,18.1911184 6.23828244,17.6083117 6.23828244,16.8321118 L6.23828244,10.1470737 L9.30244658,10.1470737 C9.50133428,10.1470737 9.65332975,10.0223038 9.75843301,9.77210737 C9.86288948,9.52223929 9.9156028,9.10491692 9.9156028,8.51981191 C9.9156028,8.211499 9.90234362,7.95079564 9.87614866,7.73803018 C9.84995369,7.52526473 9.81049955,7.35781043 9.75843301,7.23533895 C9.70571969,7.11319582 9.64039397,7.02552857 9.56180907,6.97200887 C9.48322418,6.91914584 9.3913801,6.89222182 9.28692364,6.89222182 L6.23828244,6.89222182 L6.23828244,3.71748537 C6.23828244,3.61110264 6.20691317,3.51555519 6.14417461,3.43018633 C6.08111265,3.34514582 5.97633279,3.27356732 5.82983502,3.21479414 C5.68301386,3.15667765 5.48121561,3.11399322 5.22476367,3.08739754 C4.96798833,3.06080186 4.64588728,3.04733985 4.25846051,3.04733985 C3.88138237,3.04733985 3.56413224,3.06080186 3.30768029,3.08739754 C3.05090495,3.11399322 2.84651955,3.15667765 2.69484747,3.21479414 C2.54285199,3.27356732 2.43807213,3.34514582 2.38050788,3.43018633 C2.32294364,3.51555519 2.29416152,3.61110264 2.29416152,3.71748537 L2.29416152,6.89222182 L0.628355769,6.89222182 C0.523575909,6.89222182 0.432055228,6.91914584 0.353470332,6.97200887 C0.274885437,7.02552857 0.209236327,7.11319582 0.157169791,7.23533895 C0.104456466,7.35781043 0.065002321,7.52526473 0.0391307504,7.73803018 C0.0129357853,7.95079564 0,8.211499 0,8.51981191 C0,9.10491692 0.0523899303,9.52223929 0.157169791,9.77210737 C0.261626257,10.0223038 0.413621734,10.1470737 0.612832827,10.1470737 L2.29416152,10.1470737 L2.29416152,17.4382307 C2.29416152,18.3103064 2.38309504,19.0654925 2.56128548,19.7034605 C2.73915253,20.3420852 3.01694852,20.8710438 3.39402666,21.2913212 C3.7711048,21.7115987 4.24778849,22.0228667 4.82407772,22.2247968 C5.40004356,22.426727 6.08111265,22.5275279 6.86696161,22.5275279 C7.15995714,22.5275279 7.45068892,22.5117675 7.73915693,22.4799184 C8.02697815,22.4477409 8.29410212,22.4027581 8.54052883,22.3439849 C8.78630875,22.2855401 9.00136618,22.21626 9.18473093,22.1364729 C9.36777229,22.0570142 9.50683199,21.9667202 9.60126322,21.865591 C9.69537106,21.76479 9.7713688,21.5891272 9.82893304,21.3392591 C9.88649728,21.089391 9.9156028,20.7301852 9.9156028,20.2622982 C9.9156028,19.9644922 9.90234362,19.7195492 9.87614866,19.528126 L9.87614866,19.528126 Z M25.8612219,12.9389636 C25.8612219,11.8859716 25.771965,10.9902553 25.5940979,10.2508296 C25.4159075,9.51173235 25.1251757,8.86555578 24.7219026,8.31229992 C24.3186295,7.7593724 23.7895559,7.32333455 23.1346818,7.00385802 C22.480131,6.68503817 21.6758486,6.52546408 20.7228046,6.52546408 C19.9579763,6.52546408 19.2219301,6.69291837 18.5149895,7.02782696 C17.8077254,7.3630639 17.1137205,7.8710086 16.4326514,8.55166106 L16.4326514,0.68590593 C16.4326514,0.579851543 16.4012821,0.484304091 16.3385436,0.398935235 C16.275805,0.31389472 16.1681146,0.241987875 16.0164425,0.183543042 C15.8644471,0.125098209 15.6626488,0.0797870469 15.4113712,0.0479378965 C15.1600935,0.0160887461 14.8402563,0 14.4528295,0 C14.0650793,0 13.7455654,0.0160887461 13.4942878,0.0479378965 C13.2430102,0.0797870469 13.0408885,0.125098209 12.8892164,0.183543042 C12.737221,0.241987875 12.6301773,0.31389472 12.5671154,0.398935235 C12.5043768,0.484304091 12.4730075,0.579851543 12.4730075,0.68590593 L12.4730075,21.6659592 C12.4730075,21.7726702 12.5043768,21.865591 12.5671154,21.945378 C12.6301773,22.0251651 12.737221,22.0914901 12.8892164,22.1446814 C13.0408885,22.1982012 13.2430102,22.2379305 13.4942878,22.2641978 C13.7455654,22.2904652 14.0650793,22.3042555 14.4528295,22.3042555 C14.8402563,22.3042555 15.1600935,22.2904652 15.4113712,22.2641978 C15.6626488,22.2379305 15.8644471,22.1982012 16.0164425,22.1446814 C16.1681146,22.0914901 16.275805,22.0251651 16.3385436,21.945378 C16.4012821,21.865591 16.4326514,21.7726702 16.4326514,21.6659592 L16.4326514,12.2051198 C16.98792,11.4926182 17.5221679,10.9501976 18.0357186,10.577858 C18.5489459,10.2055185 19.0569989,10.0193487 19.5598775,10.0193487 C19.9579763,10.0193487 20.3062723,10.0968374 20.6047656,10.2508296 C20.9035822,10.4051503 21.1470984,10.6231692 21.3356374,10.9048864 C21.5241765,11.186932 21.6680871,11.5247957 21.7676927,11.9181491 C21.8672982,12.3115025 21.917101,12.8539231 21.917101,13.5454108 L21.917101,21.6659592 C21.917101,21.7726702 21.9484703,21.865591 22.0112088,21.945378 C22.0742708,22.0251651 22.1787272,22.0914901 22.3255484,22.1446814 C22.4720462,22.1982012 22.6738444,22.2379305 22.9306198,22.2641978 C23.1870717,22.2904652 23.5091727,22.3042555 23.8969229,22.3042555 C24.2740011,22.3042555 24.5906044,22.2904652 24.8477031,22.2641978 C25.1041551,22.2379305 25.3059533,22.1982012 25.4527745,22.1446814 C25.5992723,22.0914901 25.7040521,22.0251651 25.7667907,21.945378 C25.8298526,21.865591 25.8612219,21.7726702 25.8612219,21.6659592 L25.8612219,12.9389636 Z M42.2211095,13.4974729 C42.2211095,12.4980006 42.095309,11.5724052 41.8440314,10.7213434 C41.5924304,9.87060989 41.1998293,9.13413933 40.665258,8.51160336 C40.13101,7.88939573 39.4476772,7.40279325 38.6146126,7.05179591 C37.7818714,6.70079857 36.7787013,6.52546408 35.6054255,6.52546408 C34.4948884,6.52546408 33.4972159,6.71163385 32.6117614,7.0839734 C31.7266303,7.45631296 30.9750612,7.9961068 30.3570541,8.70335495 C29.7387235,9.41060309 29.2672142,10.2721719 28.9428493,11.2877329 C28.6178377,12.3036223 28.4554936,13.4442816 28.4554936,14.710039 C28.4554936,16.0398232 28.6100763,17.1991979 28.9192415,18.1881633 C29.2280834,19.177457 29.6970056,19.9963413 30.3256848,20.6451446 C30.9540406,21.293948 31.7373024,21.7779237 32.6748234,22.0970719 C33.6123444,22.4162201 34.7044481,22.5754658 35.9511344,22.5754658 C36.6425521,22.5754658 37.2919286,22.530483 37.8995871,22.4398607 C38.5072456,22.3495667 39.0469912,22.2428556 39.5181772,22.1210408 C39.9896866,21.9985694 40.3771133,21.8734712 40.6811043,21.7457462 C40.9847719,21.6183496 41.1707238,21.5172204 41.23896,21.4426868 C41.3068729,21.3681532 41.36185,21.2913212 41.4038913,21.2115342 C41.4456092,21.1317471 41.4769785,21.0335729 41.4983225,20.9163549 C41.5190198,20.7994653 41.5348661,20.6586067 41.5452147,20.4937791 C41.5558868,20.3286232 41.5610611,20.1293197 41.5610611,19.8955404 C41.5610611,19.6292553 41.5532996,19.4089379 41.5374533,19.2329468 C41.5219303,19.0576123 41.4928248,18.9216788 41.4511069,18.8261313 C41.4090656,18.7305839 41.3569991,18.6642588 41.2939371,18.6268279 C41.2311986,18.5893969 41.1526137,18.5710098 41.0581824,18.5710098 C40.9010126,18.5710098 40.6969506,18.6215744 40.4453496,18.7227037 C40.194072,18.8235046 39.8771452,18.9354691 39.4945694,19.0576123 C39.1123169,19.1797554 38.6589177,19.2917199 38.1353418,19.3925208 C37.6114425,19.4939784 37.0041073,19.5442147 36.3126896,19.5442147 C35.6316205,19.5442147 35.0475698,19.4539208 34.5605375,19.2730044 C34.0731818,19.0924165 33.675083,18.8290864 33.3662411,18.4833425 C33.0570759,18.137927 32.8319932,17.7173212 32.6906697,17.2228385 C32.5490229,16.7283558 32.4785229,16.1773984 32.4785229,15.5716078 L41.0112902,15.5716078 C41.3883684,15.5716078 41.683951,15.4543898 41.8990085,15.2202821 C42.1134191,14.9868312 42.2211095,14.6249985 42.2211095,14.1357693 L42.2211095,13.4974729 Z M32.4785229,12.9869015 C32.4992201,12.4871654 32.5752179,12.0163233 32.7061927,11.575032 C32.8371675,11.1337406 33.0257066,10.7508941 33.2718099,10.4261641 C33.5179132,10.1017625 33.8270785,9.84401421 34.1989823,9.65259097 C34.5708861,9.46083938 35.0084391,9.36529193 35.5113177,9.36529193 C36.506403,9.36529193 37.2421258,9.68706685 37.7191329,10.3306167 C38.1954932,10.9741665 38.4183121,11.8597043 38.3869428,12.9869015 L32.4785229,12.9869015 Z M65.9026516,11.3117019 C65.6930919,10.3650926 65.3606422,9.5357013 64.9049792,8.82287135 C64.4493161,8.11036974 63.8597677,7.54923367 63.1369807,7.1397915 C62.4141937,6.73034933 61.5394112,6.52546408 60.5129567,6.52546408 C60.0204267,6.52546408 59.5566788,6.57898378 59.1223598,6.68503817 C58.687394,6.7914209 58.2656874,6.95362173 57.85724,7.17164065 C57.4484692,7.38965958 57.0477832,7.66086987 56.6548587,7.98527153 C56.2622576,8.30967318 55.8615717,8.68463947 55.4528009,9.10984204 L55.4528009,7.43497074 C55.4528009,7.32858801 55.4266059,7.23533895 55.374216,7.15555191 C55.3218261,7.07576486 55.2303054,7.00943983 55.0993306,6.95624846 C54.9683557,6.9030571 54.7953396,6.8629994 54.580929,6.83640372 C54.3658715,6.81013638 54.1016581,6.79667437 53.7873185,6.79667437 C53.4623069,6.79667437 53.1925958,6.81013638 52.9778618,6.83640372 C52.7631277,6.8629994 52.5901116,6.9030571 52.4594602,6.95624846 C52.3284853,7.00943983 52.2366413,7.07576486 52.1842513,7.15555191 C52.1318614,7.23533895 52.1056664,7.32858801 52.1056664,7.43497074 L52.1056664,27.3140941 C52.1056664,27.4201485 52.1373591,27.5160243 52.2000977,27.6010648 C52.2628362,27.6861053 52.3702033,27.7580121 52.5221987,27.816457 C52.6738708,27.8749018 52.8756691,27.920213 53.1272701,27.9523904 C53.3785477,27.9839113 53.6980616,28 54.0858118,28 C54.4732385,28 54.7927524,27.9839113 55.0443535,27.9523904 C55.2956311,27.920213 55.4974293,27.8749018 55.6494248,27.816457 C55.8010969,27.7580121 55.9084639,27.6861053 55.9715259,27.6010648 C56.0342644,27.5160243 56.0659571,27.4201485 56.0659571,27.3140941 L56.0659571,20.6129672 C56.4009939,20.9429506 56.7256822,21.2299213 57.0400217,21.4748643 C57.3543613,21.7194789 57.6709647,21.9240358 57.990802,22.0888634 C58.3103158,22.2536909 58.6401784,22.3761624 58.9807129,22.4559494 C59.3209241,22.5357365 59.6957385,22.5754658 60.1041859,22.5754658 C61.0889225,22.5754658 61.963705,22.3840426 62.7285333,22.0011961 C63.4930382,21.6183496 64.1323894,21.0706756 64.6456167,20.3578456 C65.158844,19.645344 65.5491813,18.7814768 65.8163052,17.7655874 C66.0834292,16.749698 66.2169912,15.6090388 66.2169912,14.3432813 C66.2169912,13.2689471 66.1122113,12.2586395 65.9026516,11.3117019 L65.9026516,11.3117019 Z M61.9349229,16.2575137 C61.8249687,16.7999343 61.6545397,17.2865368 61.4242828,17.7173212 C61.1937024,18.1481056 60.8977963,18.4968045 60.5362411,18.762433 C60.1750093,19.0283898 59.7374564,19.1613682 59.2242291,19.1613682 C58.6796325,19.1613682 58.1557332,18.9673183 57.6528546,18.57889 C57.1499759,18.1911184 56.6209023,17.6408176 56.0659571,16.9276593 L56.0659571,12.2369689 C56.3799733,11.8117664 56.6787899,11.4551872 56.9614368,11.1682165 C57.2444071,10.8809175 57.5192926,10.6471381 57.7864165,10.4662218 C58.0535405,10.2853055 58.3154902,10.1549539 58.5722655,10.0751668 C58.8287174,9.99537976 59.0880799,9.95565041 59.3500296,9.95565041 C59.8736055,9.95565041 60.3111584,10.0860021 60.6620416,10.3463771 C61.0129248,10.6074088 61.2958951,10.9554511 61.5106291,11.3914889 C61.7253632,11.8278551 61.8773586,12.3249645 61.9662922,12.8831455 C62.0552257,13.4416548 62.0998541,14.0241331 62.0998541,14.630252 C62.0998541,15.1726726 62.0448771,15.7150932 61.9349229,16.2575137 L61.9349229,16.2575137 Z M82.3873696,12.9389636 C82.3873696,11.8859716 82.2981127,10.9902553 82.1202456,10.2508296 C81.9420552,9.51173235 81.6513234,8.86555578 81.2480503,8.31229992 C80.8444538,7.7593724 80.3157036,7.32333455 79.6611528,7.00385802 C79.0062787,6.68503817 78.2019962,6.52546408 77.2489523,6.52546408 C76.484124,6.52546408 75.7484012,6.69291837 75.0411371,7.02782696 C74.3338731,7.3630639 73.6398682,7.8710086 72.9587991,8.55166106 L72.9587991,0.68590593 C72.9587991,0.579851543 72.9274298,0.484304091 72.8646912,0.398935235 C72.8019527,0.31389472 72.6942623,0.241987875 72.5425902,0.183543042 C72.3905947,0.125098209 72.1887965,0.0797870469 71.9375188,0.0479378965 C71.6862412,0.0160887461 71.3664039,0 70.9789771,0 C70.591227,0 70.2717131,0.0160887461 70.0204355,0.0479378965 C69.7688344,0.0797870469 69.5670362,0.125098209 69.4153641,0.183543042 C69.2633686,0.241987875 69.1560016,0.31389472 69.0932631,0.398935235 C69.0305245,0.484304091 68.9988318,0.579851543 68.9988318,0.68590593 L68.9988318,21.6659592 C68.9988318,21.7726702 69.0305245,21.865591 69.0932631,21.945378 C69.1560016,22.0251651 69.2633686,22.0914901 69.4153641,22.1446814 C69.5670362,22.1982012 69.7688344,22.2379305 70.0204355,22.2641978 C70.2717131,22.2904652 70.591227,22.3042555 70.9789771,22.3042555 C71.3664039,22.3042555 71.6862412,22.2904652 71.9375188,22.2641978 C72.1887965,22.2379305 72.3905947,22.1982012 72.5425902,22.1446814 C72.6942623,22.0914901 72.8019527,22.0251651 72.8646912,21.945378 C72.9274298,21.865591 72.9587991,21.7726702 72.9587991,21.6659592 L72.9587991,12.2051198 C73.5140677,11.4926182 74.0483156,10.9501976 74.5618663,10.577858 C75.0747702,10.2055185 75.5831465,10.0193487 76.0860252,10.0193487 C76.484124,10.0193487 76.83242,10.0968374 77.1309132,10.2508296 C77.4294065,10.4051503 77.6729226,10.6231692 77.8617851,10.9048864 C78.0503242,11.186932 78.1942348,11.5247957 78.2938403,11.9181491 C78.3934459,12.3115025 78.4432486,12.8539231 78.4432486,13.5454108 L78.4432486,21.6659592 C78.4432486,21.7726702 78.4746179,21.865591 78.5373565,21.945378 C78.600095,22.0251651 78.7051983,22.0914901 78.8516961,22.1446814 C78.9981938,22.1982012 79.1996687,22.2379305 79.4567674,22.2641978 C79.712896,22.2904652 80.0353204,22.3042555 80.4230706,22.3042555 C80.8004721,22.3042555 81.1167521,22.2904652 81.3738508,22.2641978 C81.6303027,22.2379305 81.832101,22.1982012 81.9789221,22.1446814 C82.1254199,22.0914901 82.2301998,22.0251651 82.2929383,21.945378 C82.3560003,21.865591 82.3873696,21.7726702 82.3873696,21.6659592 L82.3873696,12.9389636 Z M98.2776882,8.26436202 C98.3617708,7.99873354 98.4034887,7.7672526 98.4034887,7.57024755 C98.4034887,7.37357083 98.3329887,7.21695182 98.1916652,7.09973381 C98.0500184,6.98284414 97.83011,6.9030571 97.5312934,6.86037267 C97.2328001,6.81801658 96.8586325,6.79667437 96.4078204,6.79667437 C95.8315312,6.79667437 95.4282581,6.81801658 95.1980011,6.86037267 C94.9674207,6.9030571 94.8021661,6.96971047 94.7028839,7.06000446 C94.6032784,7.15029844 94.5224297,7.33384148 94.4593678,7.61030524 L91.4424193,17.3265945 L91.3952036,17.3265945 L88.0952848,7.80172848 C88.0218742,7.55711388 87.9484637,7.36864571 87.8753765,7.23533895 C87.8019659,7.10236054 87.6916883,7.00385802 87.5451905,6.94015971 C87.3983694,6.87646141 87.193984,6.83640372 86.9323577,6.82064332 C86.6704081,6.80455457 86.3140272,6.79667437 85.8638619,6.79667437 C85.3713318,6.79667437 84.9758202,6.81801658 84.677327,6.86037267 C84.3788337,6.9030571 84.1666868,6.98021741 84.0412097,7.09185361 C83.9154092,7.2034898 83.8523473,7.35781043 83.8523473,7.55448714 C83.8523473,7.7514922 83.9205835,8.03583616 84.0567327,8.40817571 L88.8811338,21.4906247 C88.9328769,21.6396918 89.0143724,21.7802221 89.1246499,21.9135289 C89.2346041,22.0468356 89.3574941,22.1446814 89.4936432,22.2087081 L87.6237754,26.9791855 C87.5503649,27.1594451 87.519319,27.3140941 87.5296676,27.441819 C87.5400162,27.569544 87.6079291,27.67527 87.734053,27.7606389 C87.8595301,27.8456794 88.0480692,27.9067509 88.2993468,27.9438536 C88.5509479,27.9812845 88.8859847,28 89.3051041,28 C90.1116503,28 90.7248066,27.9415552 91.1436026,27.8246655 C91.5627221,27.7074475 91.8194974,27.5160243 91.9136052,27.2500674 L93.6107803,22.2087081 L98.2776882,8.26436202 Z M109.987161,15.9623345 C109.78795,15.489194 109.525677,15.0823786 109.201312,14.7422165 C108.8763,14.4017261 108.507307,14.1144271 108.093362,13.8803194 C107.679417,13.6465401 107.260621,13.4416548 106.836327,13.2663203 C106.412033,13.0906575 105.992914,12.9284567 105.578969,12.7793895 C105.165347,12.6306507 104.79603,12.4710766 104.471342,12.3009956 C104.146331,12.1309145 103.884381,11.9339095 103.685817,11.7106371 C103.486606,11.4873647 103.387,11.2105726 103.387,10.8809175 C103.387,10.6684804 103.428718,10.4688486 103.5128,10.2826788 C103.59656,10.0968374 103.722037,9.9343082 103.889879,9.79607632 C104.057397,9.65784444 104.272131,9.55146171 104.534081,9.47692813 C104.79603,9.40272289 105.104872,9.36529193 105.461253,9.36529193 C105.964132,9.36529193 106.412033,9.42111003 106.804958,9.53274623 C107.197559,9.64438242 107.543591,9.76422717 107.842084,9.89195211 C108.140254,10.0193487 108.389268,10.1388651 108.588156,10.2508296 C108.787367,10.3624658 108.934188,10.4182839 109.028296,10.4182839 C109.112055,10.4182839 109.185789,10.3998968 109.248204,10.3624658 C109.311266,10.3253632 109.361069,10.2534564 109.397613,10.1470737 C109.43448,10.0410193 109.460675,9.89720558 109.476197,9.71628927 C109.49172,9.5357013 109.499805,9.30159363 109.499805,9.01429459 C109.499805,8.76967998 109.49172,8.56512307 109.476197,8.39996717 C109.460675,8.2351396 109.442241,8.09690772 109.421544,7.98527153 C109.4002,7.87363533 109.36883,7.77775954 109.327113,7.69797249 C109.285071,7.61818544 109.214248,7.5383984 109.114966,7.45861135 C109.01536,7.3788243 108.850105,7.28327685 108.619849,7.17164065 C108.389268,7.06000446 108.106298,6.95624846 107.771261,6.86037267 C107.435901,6.76482522 107.06141,6.68503817 106.647788,6.62101153 C106.233843,6.55731323 105.806962,6.52546408 105.367145,6.52546408 C104.487189,6.52546408 103.693578,6.63710027 102.986314,6.86037267 C102.27905,7.0839734 101.679153,7.39753978 101.186946,7.80172848 C100.69474,8.20591719 100.317338,8.69251967 100.055712,9.26153594 C99.7937622,9.8305522 99.6627874,10.4557149 99.6627874,11.136039 C99.6627874,11.8061846 99.7594824,12.3807826 99.9535192,12.8595049 C100.147233,13.3378988 100.403684,13.7476694 100.723522,14.0878314 C101.043036,14.4283218 101.404267,14.7156209 101.807864,14.9490718 C102.210814,15.1835079 102.624759,15.3910199 103.049053,15.5716078 C103.47367,15.7528525 103.887291,15.9173517 104.290565,16.0660905 C104.693838,16.215486 105.055069,16.3747318 105.374907,16.5448128 C105.694421,16.7152222 105.951196,16.9145256 106.144909,17.1430515 C106.338623,17.3715773 106.435641,17.6457427 106.435641,17.9645625 C106.435641,18.241683 106.382928,18.4856409 106.278471,18.6987347 C106.173692,18.9115002 106.019432,19.087163 105.815047,19.2253949 C105.610661,19.3632984 105.369409,19.4700095 105.09226,19.5442147 C104.814464,19.6187483 104.497537,19.6558509 104.14148,19.6558509 C103.575862,19.6558509 103.070073,19.5872275 102.624759,19.4483389 C102.179768,19.3104354 101.78943,19.1613682 101.45407,19.0014658 C101.11871,18.8422201 100.83865,18.696108 100.613568,18.5628012 C100.388162,18.4301512 100.218056,18.3638261 100.102604,18.3638261 C100.008496,18.3638261 99.9302348,18.3822133 99.8671728,18.4196442 C99.8041109,18.4567468 99.7517209,18.5309521 99.710003,18.6425883 C99.6679617,18.7548812 99.6365924,18.90362 99.6155718,19.0894614 C99.5945511,19.2759595 99.5842025,19.5228725 99.5842025,19.8311854 C99.5842025,20.2994008 99.6155718,20.6530248 99.6786337,20.892386 C99.7413723,21.1317471 99.8303058,21.3070816 99.9457577,21.4190462 C100.060886,21.5306824 100.244251,21.6498704 100.495852,21.7779237 C100.74713,21.9056487 101.061469,22.0307469 101.438547,22.1525617 C101.815625,22.2750331 102.242506,22.3761624 102.71919,22.4559494 C103.195874,22.5357365 103.696165,22.5754658 104.220065,22.5754658 C105.089349,22.5754658 105.895896,22.4717098 106.640027,22.2641978 C107.383511,22.0570142 108.027713,21.7457462 108.572633,21.3310506 C109.117553,20.9163549 109.539259,20.40053 109.837429,19.7832475 C110.136246,19.1666217 110.285654,18.4541201 110.285654,17.6457427 C110.285654,16.9972677 110.186049,16.4358033 109.987161,15.9623345 L109.987161,15.9623345 Z M116.780712,7.46681989 C116.780712,7.36043716 116.749666,7.2671881 116.686604,7.18740106 C116.623542,7.10761401 116.516175,7.03866224 116.364503,6.98021741 C116.212508,6.92177258 116.011033,6.87646141 115.759432,6.84461226 C115.508154,6.81276311 115.188317,6.79667437 114.80089,6.79667437 C114.41314,6.79667437 114.093949,6.81276311 113.842348,6.84461226 C113.591071,6.87646141 113.388949,6.92177258 113.237277,6.98021741 C113.085282,7.03866224 112.978238,7.10761401 112.915176,7.18740106 C112.852437,7.2671881 112.821068,7.36043716 112.821068,7.46681989 L112.821068,21.6659592 C112.821068,21.7726702 112.852437,21.865591 112.915176,21.945378 C112.978238,22.0251651 113.085282,22.0914901 113.237277,22.1446814 C113.388949,22.1982012 113.591071,22.2379305 113.842348,22.2641978 C114.093949,22.2904652 114.41314,22.3042555 114.80089,22.3042555 C115.188317,22.3042555 115.508154,22.2904652 115.759432,22.2641978 C116.011033,22.2379305 116.212508,22.1982012 116.364503,22.1446814 C116.516175,22.0914901 116.623542,22.0251651 116.686604,21.945378 C116.749666,21.865591 116.780712,21.7726702 116.780712,21.6659592 L116.780712,7.46681989 Z M116.608019,0.997173916 C116.294003,0.694114474 115.696693,0.542420582 114.816736,0.542420582 C113.926108,0.542420582 113.321036,0.699696284 113.001522,1.01326266 C112.682332,1.32682904 112.522575,1.8879651 112.522575,2.69634251 C112.522575,3.47287076 112.676834,4.01003788 112.985999,4.30784385 C113.294841,4.60564982 113.894738,4.75438864 114.785367,4.75438864 C115.665324,4.75438864 116.267485,4.60039636 116.592496,4.2917551 C116.916861,3.98344219 117.079529,3.42493287 117.079529,2.61655546 C117.079529,1.84035555 116.922359,1.30023336 116.608019,0.997173916 L116.608019,0.997173916 Z M134.011825,11.0404916 C133.718506,10.0620331 133.270604,9.23756699 132.66812,8.56742146 C132.065959,7.89727594 131.303718,7.38965958 130.382043,7.04391571 C129.460045,6.69850018 128.370529,6.52546408 127.113494,6.52546408 C125.82509,6.52546408 124.701293,6.72214079 123.742752,7.11582255 C122.784533,7.50950432 121.985425,8.06505857 121.346397,8.78281365 C120.70737,9.50089708 120.228099,10.3624658 119.908585,11.36752 C119.589071,12.3729024 119.429314,13.4813842 119.429314,14.6939503 C119.429314,15.9488725 119.575812,17.0658912 119.869454,18.0443496 C120.16245,19.0234647 120.613262,19.8472742 121.220597,20.5174197 C121.828255,21.1875652 122.59276,21.6981367 123.514758,22.049134 C124.436757,22.399803 125.520775,22.5754658 126.767785,22.5754658 C128.056189,22.5754658 129.182249,22.3787891 130.146289,21.9851074 C131.110005,21.5917539 131.911377,21.0335729 132.550404,20.3102361 C133.189432,19.5872275 133.666116,18.7253304 133.980456,17.7255297 C134.294795,16.7257291 134.451965,15.6195457 134.451965,14.4069796 C134.451965,13.1412221 134.305144,12.0192784 134.011825,11.0404916 L134.011825,11.0404916 Z M130.177658,16.5848705 C130.041186,17.175229 129.831949,17.6772635 129.549302,18.0922875 C129.266332,18.5073115 128.904777,18.8235046 128.46496,19.0415235 C128.02482,19.2595424 127.506095,19.3688802 126.909109,19.3688802 C126.259409,19.3688802 125.714812,19.2490355 125.274995,19.0100027 C124.834855,18.7703132 124.486559,18.4331062 124.230107,17.99674 C123.973009,17.5607022 123.78738,17.047504 123.672252,16.4571455 C123.5568,15.8667871 123.499236,15.2202821 123.499236,14.5186158 C123.499236,13.7634298 123.570059,13.0906575 123.711382,12.500299 C123.852706,11.9099405 124.064853,11.4049509 124.347823,10.9846735 C124.63047,10.5647244 124.992025,10.2455762 125.431842,10.0275573 C125.871982,9.80953833 126.385209,9.70020052 126.97217,9.70020052 C127.632219,9.70020052 128.179403,9.822672 128.614045,10.0672866 C129.048687,10.3122296 129.397307,10.6523916 129.658933,11.0884295 C129.920559,11.5247957 130.106835,12.0376655 130.217112,12.628024 C130.326743,13.2183824 130.382043,13.864559 130.382043,14.5662254 C130.382043,15.3217397 130.313807,15.9941837 130.177658,16.5848705 L130.177658,16.5848705 Z M146.701507,15.9623345 C146.502296,15.489194 146.240346,15.0823786 145.915658,14.7422165 C145.59097,14.4017261 145.221976,14.1144271 144.808031,13.8803194 C144.394086,13.6465401 143.974967,13.4416548 143.550673,13.2663203 C143.126702,13.0906575 142.70726,12.9284567 142.293961,12.7793895 C141.879693,12.6306507 141.510376,12.4710766 141.186011,12.3009956 C140.861,12.1309145 140.59905,11.9339095 140.400486,11.7106371 C140.200951,11.4873647 140.101669,11.2105726 140.101669,10.8809175 C140.101669,10.6684804 140.143387,10.4688486 140.227146,10.2826788 C140.310905,10.0968374 140.436706,9.9343082 140.604224,9.79607632 C140.772066,9.65784444 140.9868,9.55146171 141.248426,9.47692813 C141.510376,9.40272289 141.819541,9.36529193 142.175599,9.36529193 C142.678801,9.36529193 143.126702,9.42111003 143.519304,9.53274623 C143.912228,9.64438242 144.257937,9.76422717 144.55643,9.89195211 C144.855247,10.0193487 145.103937,10.1388651 145.302825,10.2508296 C145.501713,10.3624658 145.648534,10.4182839 145.742965,10.4182839 C145.826724,10.4182839 145.900135,10.3998968 145.962873,10.3624658 C146.025612,10.3253632 146.075415,10.2534564 146.111958,10.1470737 C146.148825,10.0410193 146.17502,9.89720558 146.190867,9.71628927 C146.20639,9.5357013 146.214151,9.30159363 146.214151,9.01429459 C146.214151,8.76967998 146.20639,8.56512307 146.190867,8.39996717 C146.17502,8.2351396 146.156587,8.09690772 146.13589,7.98527153 C146.114869,7.87363533 146.083176,7.77775954 146.041782,7.69797249 C145.999417,7.61818544 145.928917,7.5383984 145.829311,7.45861135 C145.729706,7.3788243 145.564775,7.28327685 145.334518,7.17164065 C145.103937,7.06000446 144.820967,6.95624846 144.48593,6.86037267 C144.150247,6.76482522 143.776079,6.68503817 143.362457,6.62101153 C142.948512,6.55731323 142.521308,6.52546408 142.081491,6.52546408 C141.201858,6.52546408 140.407924,6.63710027 139.70066,6.86037267 C138.993719,7.0839734 138.393822,7.39753978 137.901939,7.80172848 C137.409085,8.20591719 137.032007,8.69251967 136.770381,9.26153594 C136.508108,9.8305522 136.377457,10.4557149 136.377457,11.136039 C136.377457,11.8061846 136.474152,12.3807826 136.668188,12.8595049 C136.861578,13.3378988 137.118354,13.7476694 137.438191,14.0878314 C137.757381,14.4283218 138.118937,14.7156209 138.522533,14.9490718 C138.925483,15.1835079 139.339428,15.3910199 139.763722,15.5716078 C140.188015,15.7528525 140.601637,15.9173517 141.005234,16.0660905 C141.408183,16.215486 141.769739,16.3747318 142.089576,16.5448128 C142.408766,16.7152222 142.665542,16.9145256 142.859579,17.1430515 C143.052969,17.3715773 143.149987,17.6457427 143.149987,17.9645625 C143.149987,18.241683 143.097597,18.4856409 142.993141,18.6987347 C142.888037,18.9115002 142.733778,19.087163 142.529393,19.2253949 C142.325331,19.3632984 142.084078,19.4700095 141.806606,19.5442147 C141.52881,19.6187483 141.211883,19.6558509 140.855825,19.6558509 C140.290208,19.6558509 139.784419,19.5872275 139.339428,19.4483389 C138.894114,19.3104354 138.503776,19.1613682 138.168739,19.0014658 C137.833379,18.8422201 137.553319,18.696108 137.327913,18.5628012 C137.102831,18.4301512 136.932402,18.3638261 136.817273,18.3638261 C136.723165,18.3638261 136.64458,18.3822133 136.581842,18.4196442 C136.51878,18.4567468 136.466067,18.5309521 136.424672,18.6425883 C136.382307,18.7548812 136.351262,18.90362 136.330564,19.0894614 C136.30922,19.2759595 136.298872,19.5228725 136.298872,19.8311854 C136.298872,20.2994008 136.330564,20.6530248 136.392979,20.892386 C136.456041,21.1317471 136.544975,21.3070816 136.660103,21.4190462 C136.775555,21.5306824 136.958597,21.6498704 137.210198,21.7779237 C137.461475,21.9056487 137.775815,22.0307469 138.153216,22.1525617 C138.530295,22.2750331 138.956852,22.3761624 139.433859,22.4559494 C139.910219,22.5357365 140.410511,22.5754658 140.93441,22.5754658 C141.803695,22.5754658 142.610565,22.4717098 143.354372,22.2641978 C144.09818,22.0570142 144.742382,21.7457462 145.287302,21.3310506 C145.831899,20.9163549 146.253605,20.40053 146.552098,19.7832475 C146.850592,19.1666217 147,18.4541201 147,17.6457427 C147,16.9972677 146.900394,16.4358033 146.701507,15.9623345 L146.701507,15.9623345 Z" id="Fill-1"></path>
        </g>
    </g>
</svg>