<?xml version="1.0" encoding="UTF-8"?>
<svg width="22px" height="22px" viewBox="0 0 22 22" version="1.1" xmlns="http://www.w3.org/2000/svg" xmlns:xlink="http://www.w3.org/1999/xlink">
    <title>AF415106-5CF6-4F30-9F56-8845F377FE3C</title>
    <g id="Symbols" stroke="none" stroke-width="1" fill="none" fill-rule="evenodd">
        <g id="Elements/Searchbar" transform="translate(-647.000000, -15.000000)" fill="#303030" fill-rule="nonzero" stroke="#303030" stroke-width="1.4">
            <path d="M667.877944,34.6995769 L662.068085,28.889719 C663.170041,27.529286 663.833363,25.7997505 663.833363,23.916699 C663.833363,19.551454 660.281908,16 655.916662,16 C651.551416,16 648,19.551454 648,23.916699 C648,28.281944 651.551455,31.833398 655.916701,31.833398 C657.799753,31.833398 659.529289,31.170037 660.889722,30.0681203 L666.699581,35.8779782 C666.862355,36.0406739 667.126106,36.0406739 667.28888,35.8779782 L667.877983,35.2888362 C668.040679,35.1261014 668.040679,34.8622726 667.877944,34.6995769 Z M655.857143,30.2857143 C652.312228,30.2857143 649.428571,27.402058 649.428571,23.8571429 C649.428571,20.3122277 652.312228,17.4285714 655.857143,17.4285714 C659.402058,17.4285714 662.285714,20.3122277 662.285714,23.8571429 C662.285714,27.402058 659.402058,30.2857143 655.857143,30.2857143 Z" id="Shape" transform="translate(658.000000, 26.000000) scale(-1, 1) translate(-658.000000, -26.000000) "></path>
        </g>
    </g>
</svg>